<?xml version="1.0" encoding="utf-8"?>
<svg xmlns="http://www.w3.org/2000/svg" xmlns:xlink="http://www.w3.org/1999/xlink" width="600" height="400" viewBox="0 0 2400 1600">
<defs>
  <clipPath id="clip720">
    <rect x="0" y="0" width="2400" height="1600"/>
  </clipPath>
</defs>
<path clip-path="url(#clip720)" d="
M0 1600 L2400 1600 L2400 0 L0 0  Z
  " fill="#ffffff" fill-rule="evenodd" fill-opacity="1"/>
<defs>
  <clipPath id="clip721">
    <rect x="480" y="0" width="1681" height="1600"/>
  </clipPath>
</defs>
<defs>
  <clipPath id="clip722">
    <rect x="280" y="47" width="2073" height="1365"/>
  </clipPath>
</defs>
<path clip-path="url(#clip720)" d="
M340.028 1423.18 L2352.76 1423.18 L2352.76 47.2441 L340.028 47.2441  Z
  " fill="#ffffff" fill-rule="evenodd" fill-opacity="1"/>
<defs>
  <clipPath id="clip723">
    <rect x="340" y="47" width="2014" height="1377"/>
  </clipPath>
</defs>
<polyline clip-path="url(#clip723)" style="stroke:#000000; stroke-linecap:round; stroke-linejoin:round; stroke-width:2; stroke-opacity:0.1; fill:none" points="
  705.344,1423.18 705.344,47.2441 
  "/>
<polyline clip-path="url(#clip723)" style="stroke:#000000; stroke-linecap:round; stroke-linejoin:round; stroke-width:2; stroke-opacity:0.1; fill:none" points="
  1111.07,1423.18 1111.07,47.2441 
  "/>
<polyline clip-path="url(#clip723)" style="stroke:#000000; stroke-linecap:round; stroke-linejoin:round; stroke-width:2; stroke-opacity:0.1; fill:none" points="
  1516.8,1423.18 1516.8,47.2441 
  "/>
<polyline clip-path="url(#clip723)" style="stroke:#000000; stroke-linecap:round; stroke-linejoin:round; stroke-width:2; stroke-opacity:0.1; fill:none" points="
  1922.52,1423.18 1922.52,47.2441 
  "/>
<polyline clip-path="url(#clip723)" style="stroke:#000000; stroke-linecap:round; stroke-linejoin:round; stroke-width:2; stroke-opacity:0.1; fill:none" points="
  2328.25,1423.18 2328.25,47.2441 
  "/>
<polyline clip-path="url(#clip720)" style="stroke:#000000; stroke-linecap:round; stroke-linejoin:round; stroke-width:4; stroke-opacity:1; fill:none" points="
  340.028,1423.18 2352.76,1423.18 
  "/>
<polyline clip-path="url(#clip720)" style="stroke:#000000; stroke-linecap:round; stroke-linejoin:round; stroke-width:4; stroke-opacity:1; fill:none" points="
  705.344,1423.18 705.344,1404.28 
  "/>
<polyline clip-path="url(#clip720)" style="stroke:#000000; stroke-linecap:round; stroke-linejoin:round; stroke-width:4; stroke-opacity:1; fill:none" points="
  1111.07,1423.18 1111.07,1404.28 
  "/>
<polyline clip-path="url(#clip720)" style="stroke:#000000; stroke-linecap:round; stroke-linejoin:round; stroke-width:4; stroke-opacity:1; fill:none" points="
  1516.8,1423.18 1516.8,1404.28 
  "/>
<polyline clip-path="url(#clip720)" style="stroke:#000000; stroke-linecap:round; stroke-linejoin:round; stroke-width:4; stroke-opacity:1; fill:none" points="
  1922.52,1423.18 1922.52,1404.28 
  "/>
<polyline clip-path="url(#clip720)" style="stroke:#000000; stroke-linecap:round; stroke-linejoin:round; stroke-width:4; stroke-opacity:1; fill:none" points="
  2328.25,1423.18 2328.25,1404.28 
  "/>
<path clip-path="url(#clip720)" d="M680.043 1451.02 L698.399 1451.02 L698.399 1454.96 L684.325 1454.96 L684.325 1463.43 Q685.344 1463.08 686.362 1462.92 Q687.381 1462.73 688.399 1462.73 Q694.186 1462.73 697.566 1465.9 Q700.946 1469.08 700.946 1474.49 Q700.946 1480.07 697.474 1483.17 Q694.001 1486.25 687.682 1486.25 Q685.506 1486.25 683.237 1485.88 Q680.992 1485.51 678.585 1484.77 L678.585 1480.07 Q680.668 1481.2 682.89 1481.76 Q685.112 1482.32 687.589 1482.32 Q691.594 1482.32 693.932 1480.21 Q696.27 1478.1 696.27 1474.49 Q696.27 1470.88 693.932 1468.77 Q691.594 1466.67 687.589 1466.67 Q685.714 1466.67 683.839 1467.08 Q681.987 1467.5 680.043 1468.38 L680.043 1451.02 Z" fill="#000000" fill-rule="evenodd" fill-opacity="1" /><path clip-path="url(#clip720)" d="M720.159 1454.1 Q716.547 1454.1 714.719 1457.66 Q712.913 1461.2 712.913 1468.33 Q712.913 1475.44 714.719 1479.01 Q716.547 1482.55 720.159 1482.55 Q723.793 1482.55 725.598 1479.01 Q727.427 1475.44 727.427 1468.33 Q727.427 1461.2 725.598 1457.66 Q723.793 1454.1 720.159 1454.1 M720.159 1450.39 Q725.969 1450.39 729.024 1455 Q732.103 1459.58 732.103 1468.33 Q732.103 1477.06 729.024 1481.67 Q725.969 1486.25 720.159 1486.25 Q714.348 1486.25 711.27 1481.67 Q708.214 1477.06 708.214 1468.33 Q708.214 1459.58 711.27 1455 Q714.348 1450.39 720.159 1450.39 Z" fill="#000000" fill-rule="evenodd" fill-opacity="1" /><path clip-path="url(#clip720)" d="M1070.68 1481.64 L1078.32 1481.64 L1078.32 1455.28 L1070.01 1456.95 L1070.01 1452.69 L1078.27 1451.02 L1082.95 1451.02 L1082.95 1481.64 L1090.58 1481.64 L1090.58 1485.58 L1070.68 1485.58 L1070.68 1481.64 Z" fill="#000000" fill-rule="evenodd" fill-opacity="1" /><path clip-path="url(#clip720)" d="M1110.03 1454.1 Q1106.42 1454.1 1104.59 1457.66 Q1102.78 1461.2 1102.78 1468.33 Q1102.78 1475.44 1104.59 1479.01 Q1106.42 1482.55 1110.03 1482.55 Q1113.66 1482.55 1115.47 1479.01 Q1117.3 1475.44 1117.3 1468.33 Q1117.3 1461.2 1115.47 1457.66 Q1113.66 1454.1 1110.03 1454.1 M1110.03 1450.39 Q1115.84 1450.39 1118.89 1455 Q1121.97 1459.58 1121.97 1468.33 Q1121.97 1477.06 1118.89 1481.67 Q1115.84 1486.25 1110.03 1486.25 Q1104.22 1486.25 1101.14 1481.67 Q1098.08 1477.06 1098.08 1468.33 Q1098.08 1459.58 1101.14 1455 Q1104.22 1450.39 1110.03 1450.39 Z" fill="#000000" fill-rule="evenodd" fill-opacity="1" /><path clip-path="url(#clip720)" d="M1140.19 1454.1 Q1136.58 1454.1 1134.75 1457.66 Q1132.95 1461.2 1132.95 1468.33 Q1132.95 1475.44 1134.75 1479.01 Q1136.58 1482.55 1140.19 1482.55 Q1143.82 1482.55 1145.63 1479.01 Q1147.46 1475.44 1147.46 1468.33 Q1147.46 1461.2 1145.63 1457.66 Q1143.82 1454.1 1140.19 1454.1 M1140.19 1450.39 Q1146 1450.39 1149.06 1455 Q1152.13 1459.58 1152.13 1468.33 Q1152.13 1477.06 1149.06 1481.67 Q1146 1486.25 1140.19 1486.25 Q1134.38 1486.25 1131.3 1481.67 Q1128.25 1477.06 1128.25 1468.33 Q1128.25 1459.58 1131.3 1455 Q1134.38 1450.39 1140.19 1450.39 Z" fill="#000000" fill-rule="evenodd" fill-opacity="1" /><path clip-path="url(#clip720)" d="M1476.4 1481.64 L1484.04 1481.64 L1484.04 1455.28 L1475.73 1456.95 L1475.73 1452.69 L1484 1451.02 L1488.67 1451.02 L1488.67 1481.64 L1496.31 1481.64 L1496.31 1485.58 L1476.4 1485.58 L1476.4 1481.64 Z" fill="#000000" fill-rule="evenodd" fill-opacity="1" /><path clip-path="url(#clip720)" d="M1505.8 1451.02 L1524.16 1451.02 L1524.16 1454.96 L1510.08 1454.96 L1510.08 1463.43 Q1511.1 1463.08 1512.12 1462.92 Q1513.14 1462.73 1514.16 1462.73 Q1519.95 1462.73 1523.32 1465.9 Q1526.7 1469.08 1526.7 1474.49 Q1526.7 1480.07 1523.23 1483.17 Q1519.76 1486.25 1513.44 1486.25 Q1511.26 1486.25 1509 1485.88 Q1506.75 1485.51 1504.34 1484.77 L1504.34 1480.07 Q1506.43 1481.2 1508.65 1481.76 Q1510.87 1482.32 1513.35 1482.32 Q1517.35 1482.32 1519.69 1480.21 Q1522.03 1478.1 1522.03 1474.49 Q1522.03 1470.88 1519.69 1468.77 Q1517.35 1466.67 1513.35 1466.67 Q1511.47 1466.67 1509.6 1467.08 Q1507.75 1467.5 1505.8 1468.38 L1505.8 1451.02 Z" fill="#000000" fill-rule="evenodd" fill-opacity="1" /><path clip-path="url(#clip720)" d="M1545.92 1454.1 Q1542.31 1454.1 1540.48 1457.66 Q1538.67 1461.2 1538.67 1468.33 Q1538.67 1475.44 1540.48 1479.01 Q1542.31 1482.55 1545.92 1482.55 Q1549.55 1482.55 1551.36 1479.01 Q1553.19 1475.44 1553.19 1468.33 Q1553.19 1461.2 1551.36 1457.66 Q1549.55 1454.1 1545.92 1454.1 M1545.92 1450.39 Q1551.73 1450.39 1554.78 1455 Q1557.86 1459.58 1557.86 1468.33 Q1557.86 1477.06 1554.78 1481.67 Q1551.73 1486.25 1545.92 1486.25 Q1540.11 1486.25 1537.03 1481.67 Q1533.97 1477.06 1533.97 1468.33 Q1533.97 1459.58 1537.03 1455 Q1540.11 1450.39 1545.92 1450.39 Z" fill="#000000" fill-rule="evenodd" fill-opacity="1" /><path clip-path="url(#clip720)" d="M1886.22 1481.64 L1902.54 1481.64 L1902.54 1485.58 L1880.59 1485.58 L1880.59 1481.64 Q1883.25 1478.89 1887.84 1474.26 Q1892.44 1469.61 1893.62 1468.27 Q1895.87 1465.74 1896.75 1464.01 Q1897.65 1462.25 1897.65 1460.56 Q1897.65 1457.8 1895.71 1456.07 Q1893.79 1454.33 1890.68 1454.33 Q1888.48 1454.33 1886.03 1455.09 Q1883.6 1455.86 1880.82 1457.41 L1880.82 1452.69 Q1883.65 1451.55 1886.1 1450.97 Q1888.55 1450.39 1890.59 1450.39 Q1895.96 1450.39 1899.16 1453.08 Q1902.35 1455.77 1902.35 1460.26 Q1902.35 1462.39 1901.54 1464.31 Q1900.75 1466.2 1898.65 1468.8 Q1898.07 1469.47 1894.97 1472.69 Q1891.86 1475.88 1886.22 1481.64 Z" fill="#000000" fill-rule="evenodd" fill-opacity="1" /><path clip-path="url(#clip720)" d="M1922.35 1454.1 Q1918.74 1454.1 1916.91 1457.66 Q1915.1 1461.2 1915.1 1468.33 Q1915.1 1475.44 1916.91 1479.01 Q1918.74 1482.55 1922.35 1482.55 Q1925.98 1482.55 1927.79 1479.01 Q1929.62 1475.44 1929.62 1468.33 Q1929.62 1461.2 1927.79 1457.66 Q1925.98 1454.1 1922.35 1454.1 M1922.35 1450.39 Q1928.16 1450.39 1931.22 1455 Q1934.29 1459.58 1934.29 1468.33 Q1934.29 1477.06 1931.22 1481.67 Q1928.16 1486.25 1922.35 1486.25 Q1916.54 1486.25 1913.46 1481.67 Q1910.41 1477.06 1910.41 1468.33 Q1910.41 1459.58 1913.46 1455 Q1916.54 1450.39 1922.35 1450.39 Z" fill="#000000" fill-rule="evenodd" fill-opacity="1" /><path clip-path="url(#clip720)" d="M1952.51 1454.1 Q1948.9 1454.1 1947.07 1457.66 Q1945.27 1461.2 1945.27 1468.33 Q1945.27 1475.44 1947.07 1479.01 Q1948.9 1482.55 1952.51 1482.55 Q1956.15 1482.55 1957.95 1479.01 Q1959.78 1475.44 1959.78 1468.33 Q1959.78 1461.2 1957.95 1457.66 Q1956.15 1454.1 1952.51 1454.1 M1952.51 1450.39 Q1958.32 1450.39 1961.38 1455 Q1964.46 1459.58 1964.46 1468.33 Q1964.46 1477.06 1961.38 1481.67 Q1958.32 1486.25 1952.51 1486.25 Q1946.7 1486.25 1943.62 1481.67 Q1940.57 1477.06 1940.57 1468.33 Q1940.57 1459.58 1943.62 1455 Q1946.7 1450.39 1952.51 1450.39 Z" fill="#000000" fill-rule="evenodd" fill-opacity="1" /><path clip-path="url(#clip720)" d="M2291.94 1481.64 L2308.26 1481.64 L2308.26 1485.58 L2286.32 1485.58 L2286.32 1481.64 Q2288.98 1478.89 2293.56 1474.26 Q2298.17 1469.61 2299.35 1468.27 Q2301.6 1465.74 2302.47 1464.01 Q2303.38 1462.25 2303.38 1460.56 Q2303.38 1457.8 2301.43 1456.07 Q2299.51 1454.33 2296.41 1454.33 Q2294.21 1454.33 2291.76 1455.09 Q2289.33 1455.86 2286.55 1457.41 L2286.55 1452.69 Q2289.37 1451.55 2291.83 1450.97 Q2294.28 1450.39 2296.32 1450.39 Q2301.69 1450.39 2304.88 1453.08 Q2308.08 1455.77 2308.08 1460.26 Q2308.08 1462.39 2307.27 1464.31 Q2306.48 1466.2 2304.37 1468.8 Q2303.79 1469.47 2300.69 1472.69 Q2297.59 1475.88 2291.94 1481.64 Z" fill="#000000" fill-rule="evenodd" fill-opacity="1" /><path clip-path="url(#clip720)" d="M2318.12 1451.02 L2336.48 1451.02 L2336.48 1454.96 L2322.41 1454.96 L2322.41 1463.43 Q2323.42 1463.08 2324.44 1462.92 Q2325.46 1462.73 2326.48 1462.73 Q2332.27 1462.73 2335.65 1465.9 Q2339.03 1469.08 2339.03 1474.49 Q2339.03 1480.07 2335.55 1483.17 Q2332.08 1486.25 2325.76 1486.25 Q2323.59 1486.25 2321.32 1485.88 Q2319.07 1485.51 2316.66 1484.77 L2316.66 1480.07 Q2318.75 1481.2 2320.97 1481.76 Q2323.19 1482.32 2325.67 1482.32 Q2329.67 1482.32 2332.01 1480.21 Q2334.35 1478.1 2334.35 1474.49 Q2334.35 1470.88 2332.01 1468.77 Q2329.67 1466.67 2325.67 1466.67 Q2323.79 1466.67 2321.92 1467.08 Q2320.07 1467.5 2318.12 1468.38 L2318.12 1451.02 Z" fill="#000000" fill-rule="evenodd" fill-opacity="1" /><path clip-path="url(#clip720)" d="M2358.24 1454.1 Q2354.63 1454.1 2352.8 1457.66 Q2350.99 1461.2 2350.99 1468.33 Q2350.99 1475.44 2352.8 1479.01 Q2354.63 1482.55 2358.24 1482.55 Q2361.87 1482.55 2363.68 1479.01 Q2365.51 1475.44 2365.51 1468.33 Q2365.51 1461.2 2363.68 1457.66 Q2361.87 1454.1 2358.24 1454.1 M2358.24 1450.39 Q2364.05 1450.39 2367.1 1455 Q2370.18 1459.58 2370.18 1468.33 Q2370.18 1477.06 2367.1 1481.67 Q2364.05 1486.25 2358.24 1486.25 Q2352.43 1486.25 2349.35 1481.67 Q2346.29 1477.06 2346.29 1468.33 Q2346.29 1459.58 2349.35 1455 Q2352.43 1450.39 2358.24 1450.39 Z" fill="#000000" fill-rule="evenodd" fill-opacity="1" /><path clip-path="url(#clip720)" d="M987 1520.52 L995.657 1520.52 L1016.73 1560.28 L1016.73 1520.52 L1022.97 1520.52 L1022.97 1568.04 L1014.31 1568.04 L993.238 1528.29 L993.238 1568.04 L987 1568.04 L987 1520.52 Z" fill="#000000" fill-rule="evenodd" fill-opacity="1" /><path clip-path="url(#clip720)" d="M1034.9 1553.98 L1034.9 1532.4 L1040.76 1532.4 L1040.76 1553.75 Q1040.76 1558.81 1042.73 1561.36 Q1044.71 1563.87 1048.65 1563.87 Q1053.39 1563.87 1056.13 1560.85 Q1058.9 1557.83 1058.9 1552.61 L1058.9 1532.4 L1064.76 1532.4 L1064.76 1568.04 L1058.9 1568.04 L1058.9 1562.57 Q1056.77 1565.82 1053.94 1567.41 Q1051.13 1568.97 1047.41 1568.97 Q1041.27 1568.97 1038.08 1565.15 Q1034.9 1561.33 1034.9 1553.98 M1049.64 1531.54 L1049.64 1531.54 Z" fill="#000000" fill-rule="evenodd" fill-opacity="1" /><path clip-path="url(#clip720)" d="M1104.57 1539.24 Q1106.77 1535.29 1109.83 1533.41 Q1112.88 1531.54 1117.02 1531.54 Q1122.59 1531.54 1125.61 1535.45 Q1128.64 1539.33 1128.64 1546.53 L1128.64 1568.04 L1122.75 1568.04 L1122.75 1546.72 Q1122.75 1541.59 1120.93 1539.11 Q1119.12 1536.63 1115.4 1536.63 Q1110.84 1536.63 1108.2 1539.65 Q1105.56 1542.68 1105.56 1547.9 L1105.56 1568.04 L1099.67 1568.04 L1099.67 1546.72 Q1099.67 1541.56 1097.86 1539.11 Q1096.04 1536.63 1092.26 1536.63 Q1087.77 1536.63 1085.13 1539.68 Q1082.49 1542.71 1082.49 1547.9 L1082.49 1568.04 L1076.6 1568.04 L1076.6 1532.4 L1082.49 1532.4 L1082.49 1537.93 Q1084.49 1534.66 1087.29 1533.1 Q1090.09 1531.54 1093.94 1531.54 Q1097.83 1531.54 1100.53 1533.51 Q1103.27 1535.48 1104.57 1539.24 Z" fill="#000000" fill-rule="evenodd" fill-opacity="1" /><path clip-path="url(#clip720)" d="M1165.91 1550.25 Q1165.91 1543.79 1163.23 1540.13 Q1160.59 1536.44 1155.95 1536.44 Q1151.3 1536.44 1148.63 1540.13 Q1145.98 1543.79 1145.98 1550.25 Q1145.98 1556.71 1148.63 1560.4 Q1151.3 1564.07 1155.95 1564.07 Q1160.59 1564.07 1163.23 1560.4 Q1165.91 1556.71 1165.91 1550.25 M1145.98 1537.81 Q1147.83 1534.62 1150.63 1533.1 Q1153.46 1531.54 1157.38 1531.54 Q1163.87 1531.54 1167.91 1536.69 Q1171.99 1541.85 1171.99 1550.25 Q1171.99 1558.65 1167.91 1563.81 Q1163.87 1568.97 1157.38 1568.97 Q1153.46 1568.97 1150.63 1567.44 Q1147.83 1565.88 1145.98 1562.7 L1145.98 1568.04 L1140.1 1568.04 L1140.1 1518.52 L1145.98 1518.52 L1145.98 1537.81 Z" fill="#000000" fill-rule="evenodd" fill-opacity="1" /><path clip-path="url(#clip720)" d="M1212.19 1548.76 L1212.19 1551.62 L1185.26 1551.62 Q1185.64 1557.67 1188.89 1560.85 Q1192.17 1564 1197.99 1564 Q1201.37 1564 1204.52 1563.17 Q1207.7 1562.35 1210.82 1560.69 L1210.82 1566.23 Q1207.67 1567.57 1204.36 1568.27 Q1201.05 1568.97 1197.64 1568.97 Q1189.11 1568.97 1184.11 1564 Q1179.15 1559.04 1179.15 1550.57 Q1179.15 1541.82 1183.86 1536.69 Q1188.6 1531.54 1196.62 1531.54 Q1203.82 1531.54 1207.99 1536.18 Q1212.19 1540.8 1212.19 1548.76 M1206.33 1547.04 Q1206.27 1542.23 1203.62 1539.37 Q1201.01 1536.5 1196.69 1536.5 Q1191.78 1536.5 1188.82 1539.27 Q1185.9 1542.04 1185.45 1547.07 L1206.33 1547.04 Z" fill="#000000" fill-rule="evenodd" fill-opacity="1" /><path clip-path="url(#clip720)" d="M1242.46 1537.87 Q1241.47 1537.3 1240.29 1537.04 Q1239.15 1536.76 1237.75 1536.76 Q1232.78 1536.76 1230.11 1540 Q1227.46 1543.22 1227.46 1549.27 L1227.46 1568.04 L1221.58 1568.04 L1221.58 1532.4 L1227.46 1532.4 L1227.46 1537.93 Q1229.31 1534.69 1232.27 1533.13 Q1235.23 1531.54 1239.46 1531.54 Q1240.07 1531.54 1240.8 1531.63 Q1241.53 1531.7 1242.42 1531.85 L1242.46 1537.87 Z" fill="#000000" fill-rule="evenodd" fill-opacity="1" /><path clip-path="url(#clip720)" d="M1283.13 1536.5 Q1278.42 1536.5 1275.68 1540.19 Q1272.95 1543.85 1272.95 1550.25 Q1272.95 1556.65 1275.65 1560.34 Q1278.39 1564 1283.13 1564 Q1287.81 1564 1290.55 1560.31 Q1293.29 1556.62 1293.29 1550.25 Q1293.29 1543.92 1290.55 1540.23 Q1287.81 1536.5 1283.13 1536.5 M1283.13 1531.54 Q1290.77 1531.54 1295.13 1536.5 Q1299.49 1541.47 1299.49 1550.25 Q1299.49 1559 1295.13 1564 Q1290.77 1568.97 1283.13 1568.97 Q1275.46 1568.97 1271.1 1564 Q1266.77 1559 1266.77 1550.25 Q1266.77 1541.47 1271.1 1536.5 Q1275.46 1531.54 1283.13 1531.54 Z" fill="#000000" fill-rule="evenodd" fill-opacity="1" /><path clip-path="url(#clip720)" d="M1327.25 1518.52 L1327.25 1523.39 L1321.65 1523.39 Q1318.49 1523.39 1317.25 1524.66 Q1316.04 1525.93 1316.04 1529.24 L1316.04 1532.4 L1325.69 1532.4 L1325.69 1536.95 L1316.04 1536.95 L1316.04 1568.04 L1310.15 1568.04 L1310.15 1536.95 L1304.55 1536.95 L1304.55 1532.4 L1310.15 1532.4 L1310.15 1529.91 Q1310.15 1523.96 1312.92 1521.26 Q1315.69 1518.52 1321.71 1518.52 L1327.25 1518.52 Z" fill="#000000" fill-rule="evenodd" fill-opacity="1" /><path clip-path="url(#clip720)" d="M1375.59 1533.45 L1375.59 1538.98 Q1373.11 1537.71 1370.44 1537.07 Q1367.76 1536.44 1364.9 1536.44 Q1360.54 1536.44 1358.34 1537.77 Q1356.18 1539.11 1356.18 1541.79 Q1356.18 1543.82 1357.74 1545 Q1359.3 1546.15 1364.01 1547.2 L1366.01 1547.64 Q1372.25 1548.98 1374.86 1551.43 Q1377.5 1553.85 1377.5 1558.21 Q1377.5 1563.17 1373.56 1566.07 Q1369.64 1568.97 1362.77 1568.97 Q1359.9 1568.97 1356.78 1568.39 Q1353.7 1567.85 1350.26 1566.74 L1350.26 1560.69 Q1353.51 1562.38 1356.66 1563.24 Q1359.81 1564.07 1362.89 1564.07 Q1367.03 1564.07 1369.26 1562.66 Q1371.49 1561.23 1371.49 1558.65 Q1371.49 1556.27 1369.87 1554.99 Q1368.27 1553.72 1362.83 1552.54 L1360.79 1552.07 Q1355.35 1550.92 1352.93 1548.56 Q1350.51 1546.18 1350.51 1542.04 Q1350.51 1537.01 1354.08 1534.27 Q1357.64 1531.54 1364.2 1531.54 Q1367.45 1531.54 1370.31 1532.01 Q1373.18 1532.49 1375.59 1533.45 Z" fill="#000000" fill-rule="evenodd" fill-opacity="1" /><path clip-path="url(#clip720)" d="M1386.23 1553.98 L1386.23 1532.4 L1392.08 1532.4 L1392.08 1553.75 Q1392.08 1558.81 1394.06 1561.36 Q1396.03 1563.87 1399.98 1563.87 Q1404.72 1563.87 1407.45 1560.85 Q1410.22 1557.83 1410.22 1552.61 L1410.22 1532.4 L1416.08 1532.4 L1416.08 1568.04 L1410.22 1568.04 L1410.22 1562.57 Q1408.09 1565.82 1405.26 1567.41 Q1402.46 1568.97 1398.73 1568.97 Q1392.59 1568.97 1389.41 1565.15 Q1386.23 1561.33 1386.23 1553.98 M1400.96 1531.54 L1400.96 1531.54 Z" fill="#000000" fill-rule="evenodd" fill-opacity="1" /><path clip-path="url(#clip720)" d="M1453.73 1550.25 Q1453.73 1543.79 1451.06 1540.13 Q1448.42 1536.44 1443.77 1536.44 Q1439.12 1536.44 1436.45 1540.13 Q1433.81 1543.79 1433.81 1550.25 Q1433.81 1556.71 1436.45 1560.4 Q1439.12 1564.07 1443.77 1564.07 Q1448.42 1564.07 1451.06 1560.4 Q1453.73 1556.71 1453.73 1550.25 M1433.81 1537.81 Q1435.65 1534.62 1438.46 1533.1 Q1441.29 1531.54 1445.2 1531.54 Q1451.7 1531.54 1455.74 1536.69 Q1459.81 1541.85 1459.81 1550.25 Q1459.81 1558.65 1455.74 1563.81 Q1451.7 1568.97 1445.2 1568.97 Q1441.29 1568.97 1438.46 1567.44 Q1435.65 1565.88 1433.81 1562.7 L1433.81 1568.04 L1427.92 1568.04 L1427.92 1518.52 L1433.81 1518.52 L1433.81 1537.81 Z" fill="#000000" fill-rule="evenodd" fill-opacity="1" /><path clip-path="url(#clip720)" d="M1469.52 1532.4 L1475.38 1532.4 L1475.38 1568.04 L1469.52 1568.04 L1469.52 1532.4 M1469.52 1518.52 L1475.38 1518.52 L1475.38 1525.93 L1469.52 1525.93 L1469.52 1518.52 Z" fill="#000000" fill-rule="evenodd" fill-opacity="1" /><path clip-path="url(#clip720)" d="M1517.26 1546.53 L1517.26 1568.04 L1511.41 1568.04 L1511.41 1546.72 Q1511.41 1541.66 1509.43 1539.14 Q1507.46 1536.63 1503.51 1536.63 Q1498.77 1536.63 1496.03 1539.65 Q1493.3 1542.68 1493.3 1547.9 L1493.3 1568.04 L1487.41 1568.04 L1487.41 1532.4 L1493.3 1532.4 L1493.3 1537.93 Q1495.4 1534.72 1498.23 1533.13 Q1501.09 1531.54 1504.82 1531.54 Q1510.96 1531.54 1514.11 1535.36 Q1517.26 1539.14 1517.26 1546.53 Z" fill="#000000" fill-rule="evenodd" fill-opacity="1" /><path clip-path="url(#clip720)" d="M1534.74 1522.27 L1534.74 1532.4 L1546.8 1532.4 L1546.8 1536.95 L1534.74 1536.95 L1534.74 1556.3 Q1534.74 1560.66 1535.91 1561.9 Q1537.12 1563.14 1540.78 1563.14 L1546.8 1563.14 L1546.8 1568.04 L1540.78 1568.04 Q1534.01 1568.04 1531.43 1565.53 Q1528.85 1562.98 1528.85 1556.3 L1528.85 1536.95 L1524.55 1536.95 L1524.55 1532.4 L1528.85 1532.4 L1528.85 1522.27 L1534.74 1522.27 Z" fill="#000000" fill-rule="evenodd" fill-opacity="1" /><path clip-path="url(#clip720)" d="M1584.99 1548.76 L1584.99 1551.62 L1558.07 1551.62 Q1558.45 1557.67 1561.7 1560.85 Q1564.97 1564 1570.8 1564 Q1574.17 1564 1577.32 1563.17 Q1580.51 1562.35 1583.63 1560.69 L1583.63 1566.23 Q1580.47 1567.57 1577.16 1568.27 Q1573.85 1568.97 1570.45 1568.97 Q1561.92 1568.97 1556.92 1564 Q1551.96 1559.04 1551.96 1550.57 Q1551.96 1541.82 1556.67 1536.69 Q1561.41 1531.54 1569.43 1531.54 Q1576.62 1531.54 1580.79 1536.18 Q1584.99 1540.8 1584.99 1548.76 M1579.14 1547.04 Q1579.07 1542.23 1576.43 1539.37 Q1573.82 1536.5 1569.49 1536.5 Q1564.59 1536.5 1561.63 1539.27 Q1558.7 1542.04 1558.26 1547.07 L1579.14 1547.04 Z" fill="#000000" fill-rule="evenodd" fill-opacity="1" /><path clip-path="url(#clip720)" d="M1615.26 1537.87 Q1614.28 1537.3 1613.1 1537.04 Q1611.95 1536.76 1610.55 1536.76 Q1605.59 1536.76 1602.91 1540 Q1600.27 1543.22 1600.27 1549.27 L1600.27 1568.04 L1594.38 1568.04 L1594.38 1532.4 L1600.27 1532.4 L1600.27 1537.93 Q1602.12 1534.69 1605.08 1533.13 Q1608.04 1531.54 1612.27 1531.54 Q1612.88 1531.54 1613.61 1531.63 Q1614.34 1531.7 1615.23 1531.85 L1615.26 1537.87 Z" fill="#000000" fill-rule="evenodd" fill-opacity="1" /><path clip-path="url(#clip720)" d="M1617.2 1532.4 L1623.41 1532.4 L1634.55 1562.31 L1645.69 1532.4 L1651.9 1532.4 L1638.53 1568.04 L1630.57 1568.04 L1617.2 1532.4 Z" fill="#000000" fill-rule="evenodd" fill-opacity="1" /><path clip-path="url(#clip720)" d="M1676.18 1550.12 Q1669.09 1550.12 1666.35 1551.75 Q1663.61 1553.37 1663.61 1557.29 Q1663.61 1560.4 1665.65 1562.25 Q1667.72 1564.07 1671.25 1564.07 Q1676.12 1564.07 1679.05 1560.63 Q1682.01 1557.16 1682.01 1551.43 L1682.01 1550.12 L1676.18 1550.12 M1687.86 1547.71 L1687.86 1568.04 L1682.01 1568.04 L1682.01 1562.63 Q1680 1565.88 1677.01 1567.44 Q1674.02 1568.97 1669.69 1568.97 Q1664.22 1568.97 1660.97 1565.91 Q1657.75 1562.82 1657.75 1557.67 Q1657.75 1551.65 1661.76 1548.6 Q1665.81 1545.54 1673.8 1545.54 L1682.01 1545.54 L1682.01 1544.97 Q1682.01 1540.93 1679.33 1538.73 Q1676.69 1536.5 1671.89 1536.5 Q1668.83 1536.5 1665.93 1537.23 Q1663.04 1537.97 1660.36 1539.43 L1660.36 1534.02 Q1663.58 1532.78 1666.6 1532.17 Q1669.63 1531.54 1672.49 1531.54 Q1680.23 1531.54 1684.04 1535.55 Q1687.86 1539.56 1687.86 1547.71 Z" fill="#000000" fill-rule="evenodd" fill-opacity="1" /><path clip-path="url(#clip720)" d="M1699.93 1518.52 L1705.78 1518.52 L1705.78 1568.04 L1699.93 1568.04 L1699.93 1518.52 Z" fill="#000000" fill-rule="evenodd" fill-opacity="1" /><polyline clip-path="url(#clip723)" style="stroke:#000000; stroke-linecap:round; stroke-linejoin:round; stroke-width:2; stroke-opacity:0.1; fill:none" points="
  340.028,1384.24 2352.76,1384.24 
  "/>
<polyline clip-path="url(#clip723)" style="stroke:#000000; stroke-linecap:round; stroke-linejoin:round; stroke-width:2; stroke-opacity:0.1; fill:none" points="
  340.028,1065.77 2352.76,1065.77 
  "/>
<polyline clip-path="url(#clip723)" style="stroke:#000000; stroke-linecap:round; stroke-linejoin:round; stroke-width:2; stroke-opacity:0.1; fill:none" points="
  340.028,747.311 2352.76,747.311 
  "/>
<polyline clip-path="url(#clip723)" style="stroke:#000000; stroke-linecap:round; stroke-linejoin:round; stroke-width:2; stroke-opacity:0.1; fill:none" points="
  340.028,428.847 2352.76,428.847 
  "/>
<polyline clip-path="url(#clip723)" style="stroke:#000000; stroke-linecap:round; stroke-linejoin:round; stroke-width:2; stroke-opacity:0.1; fill:none" points="
  340.028,110.383 2352.76,110.383 
  "/>
<polyline clip-path="url(#clip720)" style="stroke:#000000; stroke-linecap:round; stroke-linejoin:round; stroke-width:4; stroke-opacity:1; fill:none" points="
  340.028,1423.18 340.028,47.2441 
  "/>
<polyline clip-path="url(#clip720)" style="stroke:#000000; stroke-linecap:round; stroke-linejoin:round; stroke-width:4; stroke-opacity:1; fill:none" points="
  340.028,1384.24 358.925,1384.24 
  "/>
<polyline clip-path="url(#clip720)" style="stroke:#000000; stroke-linecap:round; stroke-linejoin:round; stroke-width:4; stroke-opacity:1; fill:none" points="
  340.028,1065.77 358.925,1065.77 
  "/>
<polyline clip-path="url(#clip720)" style="stroke:#000000; stroke-linecap:round; stroke-linejoin:round; stroke-width:4; stroke-opacity:1; fill:none" points="
  340.028,747.311 358.925,747.311 
  "/>
<polyline clip-path="url(#clip720)" style="stroke:#000000; stroke-linecap:round; stroke-linejoin:round; stroke-width:4; stroke-opacity:1; fill:none" points="
  340.028,428.847 358.925,428.847 
  "/>
<polyline clip-path="url(#clip720)" style="stroke:#000000; stroke-linecap:round; stroke-linejoin:round; stroke-width:4; stroke-opacity:1; fill:none" points="
  340.028,110.383 358.925,110.383 
  "/>
<path clip-path="url(#clip720)" d="M126.205 1370.04 Q122.593 1370.04 120.765 1373.6 Q118.959 1377.14 118.959 1384.27 Q118.959 1391.38 120.765 1394.94 Q122.593 1398.49 126.205 1398.49 Q129.839 1398.49 131.644 1394.94 Q133.473 1391.38 133.473 1384.27 Q133.473 1377.14 131.644 1373.6 Q129.839 1370.04 126.205 1370.04 M126.205 1366.33 Q132.015 1366.33 135.07 1370.94 Q138.149 1375.52 138.149 1384.27 Q138.149 1393 135.07 1397.61 Q132.015 1402.19 126.205 1402.19 Q120.394 1402.19 117.316 1397.61 Q114.26 1393 114.26 1384.27 Q114.26 1375.52 117.316 1370.94 Q120.394 1366.33 126.205 1366.33 Z" fill="#000000" fill-rule="evenodd" fill-opacity="1" /><path clip-path="url(#clip720)" d="M146.366 1395.64 L151.251 1395.64 L151.251 1401.52 L146.366 1401.52 L146.366 1395.64 Z" fill="#000000" fill-rule="evenodd" fill-opacity="1" /><path clip-path="url(#clip720)" d="M171.436 1370.04 Q167.825 1370.04 165.996 1373.6 Q164.19 1377.14 164.19 1384.27 Q164.19 1391.38 165.996 1394.94 Q167.825 1398.49 171.436 1398.49 Q175.07 1398.49 176.876 1394.94 Q178.704 1391.38 178.704 1384.27 Q178.704 1377.14 176.876 1373.6 Q175.07 1370.04 171.436 1370.04 M171.436 1366.33 Q177.246 1366.33 180.301 1370.94 Q183.38 1375.52 183.38 1384.27 Q183.38 1393 180.301 1397.61 Q177.246 1402.19 171.436 1402.19 Q165.626 1402.19 162.547 1397.61 Q159.491 1393 159.491 1384.27 Q159.491 1375.52 162.547 1370.94 Q165.626 1366.33 171.436 1366.33 Z" fill="#000000" fill-rule="evenodd" fill-opacity="1" /><path clip-path="url(#clip720)" d="M201.598 1370.04 Q197.987 1370.04 196.158 1373.6 Q194.352 1377.14 194.352 1384.27 Q194.352 1391.38 196.158 1394.94 Q197.987 1398.49 201.598 1398.49 Q205.232 1398.49 207.037 1394.94 Q208.866 1391.38 208.866 1384.27 Q208.866 1377.14 207.037 1373.6 Q205.232 1370.04 201.598 1370.04 M201.598 1366.33 Q207.408 1366.33 210.463 1370.94 Q213.542 1375.52 213.542 1384.27 Q213.542 1393 210.463 1397.61 Q207.408 1402.19 201.598 1402.19 Q195.787 1402.19 192.709 1397.61 Q189.653 1393 189.653 1384.27 Q189.653 1375.52 192.709 1370.94 Q195.787 1366.33 201.598 1366.33 Z" fill="#000000" fill-rule="evenodd" fill-opacity="1" /><path clip-path="url(#clip720)" d="M231.76 1370.04 Q228.148 1370.04 226.32 1373.6 Q224.514 1377.14 224.514 1384.27 Q224.514 1391.38 226.32 1394.94 Q228.148 1398.49 231.76 1398.49 Q235.394 1398.49 237.199 1394.94 Q239.028 1391.38 239.028 1384.27 Q239.028 1377.14 237.199 1373.6 Q235.394 1370.04 231.76 1370.04 M231.76 1366.33 Q237.57 1366.33 240.625 1370.94 Q243.704 1375.52 243.704 1384.27 Q243.704 1393 240.625 1397.61 Q237.57 1402.19 231.76 1402.19 Q225.949 1402.19 222.871 1397.61 Q219.815 1393 219.815 1384.27 Q219.815 1375.52 222.871 1370.94 Q225.949 1366.33 231.76 1366.33 Z" fill="#000000" fill-rule="evenodd" fill-opacity="1" /><path clip-path="url(#clip720)" d="M261.921 1370.04 Q258.31 1370.04 256.482 1373.6 Q254.676 1377.14 254.676 1384.27 Q254.676 1391.38 256.482 1394.94 Q258.31 1398.49 261.921 1398.49 Q265.556 1398.49 267.361 1394.94 Q269.19 1391.38 269.19 1384.27 Q269.19 1377.14 267.361 1373.6 Q265.556 1370.04 261.921 1370.04 M261.921 1366.33 Q267.732 1366.33 270.787 1370.94 Q273.866 1375.52 273.866 1384.27 Q273.866 1393 270.787 1397.61 Q267.732 1402.19 261.921 1402.19 Q256.111 1402.19 253.033 1397.61 Q249.977 1393 249.977 1384.27 Q249.977 1375.52 253.033 1370.94 Q256.111 1366.33 261.921 1366.33 Z" fill="#000000" fill-rule="evenodd" fill-opacity="1" /><path clip-path="url(#clip720)" d="M292.083 1370.04 Q288.472 1370.04 286.643 1373.6 Q284.838 1377.14 284.838 1384.27 Q284.838 1391.38 286.643 1394.94 Q288.472 1398.49 292.083 1398.49 Q295.718 1398.49 297.523 1394.94 Q299.352 1391.38 299.352 1384.27 Q299.352 1377.14 297.523 1373.6 Q295.718 1370.04 292.083 1370.04 M292.083 1366.33 Q297.893 1366.33 300.949 1370.94 Q304.028 1375.52 304.028 1384.27 Q304.028 1393 300.949 1397.61 Q297.893 1402.19 292.083 1402.19 Q286.273 1402.19 283.194 1397.61 Q280.139 1393 280.139 1384.27 Q280.139 1375.52 283.194 1370.94 Q286.273 1366.33 292.083 1366.33 Z" fill="#000000" fill-rule="evenodd" fill-opacity="1" /><path clip-path="url(#clip720)" d="M127.2 1051.57 Q123.589 1051.57 121.76 1055.14 Q119.955 1058.68 119.955 1065.81 Q119.955 1072.92 121.76 1076.48 Q123.589 1080.02 127.2 1080.02 Q130.834 1080.02 132.64 1076.48 Q134.468 1072.92 134.468 1065.81 Q134.468 1058.68 132.64 1055.14 Q130.834 1051.57 127.2 1051.57 M127.2 1047.87 Q133.01 1047.87 136.066 1052.48 Q139.144 1057.06 139.144 1065.81 Q139.144 1074.54 136.066 1079.14 Q133.01 1083.73 127.2 1083.73 Q121.39 1083.73 118.311 1079.14 Q115.256 1074.54 115.256 1065.81 Q115.256 1057.06 118.311 1052.48 Q121.39 1047.87 127.2 1047.87 Z" fill="#000000" fill-rule="evenodd" fill-opacity="1" /><path clip-path="url(#clip720)" d="M147.362 1077.17 L152.246 1077.17 L152.246 1083.05 L147.362 1083.05 L147.362 1077.17 Z" fill="#000000" fill-rule="evenodd" fill-opacity="1" /><path clip-path="url(#clip720)" d="M172.431 1051.57 Q168.82 1051.57 166.991 1055.14 Q165.186 1058.68 165.186 1065.81 Q165.186 1072.92 166.991 1076.48 Q168.82 1080.02 172.431 1080.02 Q176.065 1080.02 177.871 1076.48 Q179.7 1072.92 179.7 1065.81 Q179.7 1058.68 177.871 1055.14 Q176.065 1051.57 172.431 1051.57 M172.431 1047.87 Q178.241 1047.87 181.297 1052.48 Q184.376 1057.06 184.376 1065.81 Q184.376 1074.54 181.297 1079.14 Q178.241 1083.73 172.431 1083.73 Q166.621 1083.73 163.542 1079.14 Q160.487 1074.54 160.487 1065.81 Q160.487 1057.06 163.542 1052.48 Q166.621 1047.87 172.431 1047.87 Z" fill="#000000" fill-rule="evenodd" fill-opacity="1" /><path clip-path="url(#clip720)" d="M202.593 1051.57 Q198.982 1051.57 197.153 1055.14 Q195.348 1058.68 195.348 1065.81 Q195.348 1072.92 197.153 1076.48 Q198.982 1080.02 202.593 1080.02 Q206.227 1080.02 208.033 1076.48 Q209.861 1072.92 209.861 1065.81 Q209.861 1058.68 208.033 1055.14 Q206.227 1051.57 202.593 1051.57 M202.593 1047.87 Q208.403 1047.87 211.459 1052.48 Q214.537 1057.06 214.537 1065.81 Q214.537 1074.54 211.459 1079.14 Q208.403 1083.73 202.593 1083.73 Q196.783 1083.73 193.704 1079.14 Q190.649 1074.54 190.649 1065.81 Q190.649 1057.06 193.704 1052.48 Q196.783 1047.87 202.593 1047.87 Z" fill="#000000" fill-rule="evenodd" fill-opacity="1" /><path clip-path="url(#clip720)" d="M232.755 1051.57 Q229.144 1051.57 227.315 1055.14 Q225.51 1058.68 225.51 1065.81 Q225.51 1072.92 227.315 1076.48 Q229.144 1080.02 232.755 1080.02 Q236.389 1080.02 238.195 1076.48 Q240.023 1072.92 240.023 1065.81 Q240.023 1058.68 238.195 1055.14 Q236.389 1051.57 232.755 1051.57 M232.755 1047.87 Q238.565 1047.87 241.621 1052.48 Q244.699 1057.06 244.699 1065.81 Q244.699 1074.54 241.621 1079.14 Q238.565 1083.73 232.755 1083.73 Q226.945 1083.73 223.866 1079.14 Q220.811 1074.54 220.811 1065.81 Q220.811 1057.06 223.866 1052.48 Q226.945 1047.87 232.755 1047.87 Z" fill="#000000" fill-rule="evenodd" fill-opacity="1" /><path clip-path="url(#clip720)" d="M256.945 1079.12 L273.264 1079.12 L273.264 1083.05 L251.32 1083.05 L251.32 1079.12 Q253.982 1076.36 258.565 1071.74 Q263.171 1067.08 264.352 1065.74 Q266.597 1063.22 267.477 1061.48 Q268.38 1059.72 268.38 1058.03 Q268.38 1055.28 266.435 1053.54 Q264.514 1051.8 261.412 1051.8 Q259.213 1051.8 256.759 1052.57 Q254.329 1053.33 251.551 1054.88 L251.551 1050.16 Q254.375 1049.03 256.829 1048.45 Q259.283 1047.87 261.32 1047.87 Q266.69 1047.87 269.884 1050.55 Q273.079 1053.24 273.079 1057.73 Q273.079 1059.86 272.269 1061.78 Q271.482 1063.68 269.375 1066.27 Q268.796 1066.94 265.695 1070.16 Q262.593 1073.36 256.945 1079.12 Z" fill="#000000" fill-rule="evenodd" fill-opacity="1" /><path clip-path="url(#clip720)" d="M283.125 1048.49 L301.481 1048.49 L301.481 1052.43 L287.407 1052.43 L287.407 1060.9 Q288.426 1060.55 289.444 1060.39 Q290.463 1060.21 291.481 1060.21 Q297.268 1060.21 300.648 1063.38 Q304.028 1066.55 304.028 1071.97 Q304.028 1077.55 300.555 1080.65 Q297.083 1083.73 290.764 1083.73 Q288.588 1083.73 286.319 1083.36 Q284.074 1082.99 281.667 1082.24 L281.667 1077.55 Q283.75 1078.68 285.972 1079.24 Q288.194 1079.79 290.671 1079.79 Q294.676 1079.79 297.014 1077.68 Q299.352 1075.58 299.352 1071.97 Q299.352 1068.36 297.014 1066.25 Q294.676 1064.14 290.671 1064.14 Q288.796 1064.14 286.921 1064.56 Q285.069 1064.98 283.125 1065.86 L283.125 1048.49 Z" fill="#000000" fill-rule="evenodd" fill-opacity="1" /><path clip-path="url(#clip720)" d="M126.205 733.109 Q122.593 733.109 120.765 736.674 Q118.959 740.216 118.959 747.345 Q118.959 754.452 120.765 758.017 Q122.593 761.558 126.205 761.558 Q129.839 761.558 131.644 758.017 Q133.473 754.452 133.473 747.345 Q133.473 740.216 131.644 736.674 Q129.839 733.109 126.205 733.109 M126.205 729.406 Q132.015 729.406 135.07 734.012 Q138.149 738.595 138.149 747.345 Q138.149 756.072 135.07 760.679 Q132.015 765.262 126.205 765.262 Q120.394 765.262 117.316 760.679 Q114.26 756.072 114.26 747.345 Q114.26 738.595 117.316 734.012 Q120.394 729.406 126.205 729.406 Z" fill="#000000" fill-rule="evenodd" fill-opacity="1" /><path clip-path="url(#clip720)" d="M146.366 758.711 L151.251 758.711 L151.251 764.591 L146.366 764.591 L146.366 758.711 Z" fill="#000000" fill-rule="evenodd" fill-opacity="1" /><path clip-path="url(#clip720)" d="M171.436 733.109 Q167.825 733.109 165.996 736.674 Q164.19 740.216 164.19 747.345 Q164.19 754.452 165.996 758.017 Q167.825 761.558 171.436 761.558 Q175.07 761.558 176.876 758.017 Q178.704 754.452 178.704 747.345 Q178.704 740.216 176.876 736.674 Q175.07 733.109 171.436 733.109 M171.436 729.406 Q177.246 729.406 180.301 734.012 Q183.38 738.595 183.38 747.345 Q183.38 756.072 180.301 760.679 Q177.246 765.262 171.436 765.262 Q165.626 765.262 162.547 760.679 Q159.491 756.072 159.491 747.345 Q159.491 738.595 162.547 734.012 Q165.626 729.406 171.436 729.406 Z" fill="#000000" fill-rule="evenodd" fill-opacity="1" /><path clip-path="url(#clip720)" d="M201.598 733.109 Q197.987 733.109 196.158 736.674 Q194.352 740.216 194.352 747.345 Q194.352 754.452 196.158 758.017 Q197.987 761.558 201.598 761.558 Q205.232 761.558 207.037 758.017 Q208.866 754.452 208.866 747.345 Q208.866 740.216 207.037 736.674 Q205.232 733.109 201.598 733.109 M201.598 729.406 Q207.408 729.406 210.463 734.012 Q213.542 738.595 213.542 747.345 Q213.542 756.072 210.463 760.679 Q207.408 765.262 201.598 765.262 Q195.787 765.262 192.709 760.679 Q189.653 756.072 189.653 747.345 Q189.653 738.595 192.709 734.012 Q195.787 729.406 201.598 729.406 Z" fill="#000000" fill-rule="evenodd" fill-opacity="1" /><path clip-path="url(#clip720)" d="M231.76 733.109 Q228.148 733.109 226.32 736.674 Q224.514 740.216 224.514 747.345 Q224.514 754.452 226.32 758.017 Q228.148 761.558 231.76 761.558 Q235.394 761.558 237.199 758.017 Q239.028 754.452 239.028 747.345 Q239.028 740.216 237.199 736.674 Q235.394 733.109 231.76 733.109 M231.76 729.406 Q237.57 729.406 240.625 734.012 Q243.704 738.595 243.704 747.345 Q243.704 756.072 240.625 760.679 Q237.57 765.262 231.76 765.262 Q225.949 765.262 222.871 760.679 Q219.815 756.072 219.815 747.345 Q219.815 738.595 222.871 734.012 Q225.949 729.406 231.76 729.406 Z" fill="#000000" fill-rule="evenodd" fill-opacity="1" /><path clip-path="url(#clip720)" d="M251.968 730.031 L270.324 730.031 L270.324 733.966 L256.25 733.966 L256.25 742.438 Q257.269 742.091 258.287 741.929 Q259.306 741.744 260.324 741.744 Q266.111 741.744 269.491 744.915 Q272.87 748.086 272.87 753.503 Q272.87 759.081 269.398 762.183 Q265.926 765.262 259.607 765.262 Q257.431 765.262 255.162 764.892 Q252.917 764.521 250.509 763.78 L250.509 759.081 Q252.593 760.216 254.815 760.771 Q257.037 761.327 259.514 761.327 Q263.519 761.327 265.857 759.22 Q268.195 757.114 268.195 753.503 Q268.195 749.892 265.857 747.785 Q263.519 745.679 259.514 745.679 Q257.639 745.679 255.764 746.095 Q253.912 746.512 251.968 747.392 L251.968 730.031 Z" fill="#000000" fill-rule="evenodd" fill-opacity="1" /><path clip-path="url(#clip720)" d="M292.083 733.109 Q288.472 733.109 286.643 736.674 Q284.838 740.216 284.838 747.345 Q284.838 754.452 286.643 758.017 Q288.472 761.558 292.083 761.558 Q295.718 761.558 297.523 758.017 Q299.352 754.452 299.352 747.345 Q299.352 740.216 297.523 736.674 Q295.718 733.109 292.083 733.109 M292.083 729.406 Q297.893 729.406 300.949 734.012 Q304.028 738.595 304.028 747.345 Q304.028 756.072 300.949 760.679 Q297.893 765.262 292.083 765.262 Q286.273 765.262 283.194 760.679 Q280.139 756.072 280.139 747.345 Q280.139 738.595 283.194 734.012 Q286.273 729.406 292.083 729.406 Z" fill="#000000" fill-rule="evenodd" fill-opacity="1" /><path clip-path="url(#clip720)" d="M127.2 414.646 Q123.589 414.646 121.76 418.21 Q119.955 421.752 119.955 428.882 Q119.955 435.988 121.76 439.553 Q123.589 443.094 127.2 443.094 Q130.834 443.094 132.64 439.553 Q134.468 435.988 134.468 428.882 Q134.468 421.752 132.64 418.21 Q130.834 414.646 127.2 414.646 M127.2 410.942 Q133.01 410.942 136.066 415.548 Q139.144 420.132 139.144 428.882 Q139.144 437.608 136.066 442.215 Q133.01 446.798 127.2 446.798 Q121.39 446.798 118.311 442.215 Q115.256 437.608 115.256 428.882 Q115.256 420.132 118.311 415.548 Q121.39 410.942 127.2 410.942 Z" fill="#000000" fill-rule="evenodd" fill-opacity="1" /><path clip-path="url(#clip720)" d="M147.362 440.247 L152.246 440.247 L152.246 446.127 L147.362 446.127 L147.362 440.247 Z" fill="#000000" fill-rule="evenodd" fill-opacity="1" /><path clip-path="url(#clip720)" d="M172.431 414.646 Q168.82 414.646 166.991 418.21 Q165.186 421.752 165.186 428.882 Q165.186 435.988 166.991 439.553 Q168.82 443.094 172.431 443.094 Q176.065 443.094 177.871 439.553 Q179.7 435.988 179.7 428.882 Q179.7 421.752 177.871 418.21 Q176.065 414.646 172.431 414.646 M172.431 410.942 Q178.241 410.942 181.297 415.548 Q184.376 420.132 184.376 428.882 Q184.376 437.608 181.297 442.215 Q178.241 446.798 172.431 446.798 Q166.621 446.798 163.542 442.215 Q160.487 437.608 160.487 428.882 Q160.487 420.132 163.542 415.548 Q166.621 410.942 172.431 410.942 Z" fill="#000000" fill-rule="evenodd" fill-opacity="1" /><path clip-path="url(#clip720)" d="M202.593 414.646 Q198.982 414.646 197.153 418.21 Q195.348 421.752 195.348 428.882 Q195.348 435.988 197.153 439.553 Q198.982 443.094 202.593 443.094 Q206.227 443.094 208.033 439.553 Q209.861 435.988 209.861 428.882 Q209.861 421.752 208.033 418.21 Q206.227 414.646 202.593 414.646 M202.593 410.942 Q208.403 410.942 211.459 415.548 Q214.537 420.132 214.537 428.882 Q214.537 437.608 211.459 442.215 Q208.403 446.798 202.593 446.798 Q196.783 446.798 193.704 442.215 Q190.649 437.608 190.649 428.882 Q190.649 420.132 193.704 415.548 Q196.783 410.942 202.593 410.942 Z" fill="#000000" fill-rule="evenodd" fill-opacity="1" /><path clip-path="url(#clip720)" d="M232.755 414.646 Q229.144 414.646 227.315 418.21 Q225.51 421.752 225.51 428.882 Q225.51 435.988 227.315 439.553 Q229.144 443.094 232.755 443.094 Q236.389 443.094 238.195 439.553 Q240.023 435.988 240.023 428.882 Q240.023 421.752 238.195 418.21 Q236.389 414.646 232.755 414.646 M232.755 410.942 Q238.565 410.942 241.621 415.548 Q244.699 420.132 244.699 428.882 Q244.699 437.608 241.621 442.215 Q238.565 446.798 232.755 446.798 Q226.945 446.798 223.866 442.215 Q220.811 437.608 220.811 428.882 Q220.811 420.132 223.866 415.548 Q226.945 410.942 232.755 410.942 Z" fill="#000000" fill-rule="evenodd" fill-opacity="1" /><path clip-path="url(#clip720)" d="M251.736 411.567 L273.958 411.567 L273.958 413.558 L261.412 446.127 L256.528 446.127 L268.333 415.502 L251.736 415.502 L251.736 411.567 Z" fill="#000000" fill-rule="evenodd" fill-opacity="1" /><path clip-path="url(#clip720)" d="M283.125 411.567 L301.481 411.567 L301.481 415.502 L287.407 415.502 L287.407 423.974 Q288.426 423.627 289.444 423.465 Q290.463 423.28 291.481 423.28 Q297.268 423.28 300.648 426.451 Q304.028 429.622 304.028 435.039 Q304.028 440.618 300.555 443.719 Q297.083 446.798 290.764 446.798 Q288.588 446.798 286.319 446.428 Q284.074 446.057 281.667 445.317 L281.667 440.618 Q283.75 441.752 285.972 442.307 Q288.194 442.863 290.671 442.863 Q294.676 442.863 297.014 440.757 Q299.352 438.65 299.352 435.039 Q299.352 431.428 297.014 429.321 Q294.676 427.215 290.671 427.215 Q288.796 427.215 286.921 427.632 Q285.069 428.048 283.125 428.928 L283.125 411.567 Z" fill="#000000" fill-rule="evenodd" fill-opacity="1" /><path clip-path="url(#clip720)" d="M126.205 96.1818 Q122.593 96.1818 120.765 99.7466 Q118.959 103.288 118.959 110.418 Q118.959 117.524 120.765 121.089 Q122.593 124.631 126.205 124.631 Q129.839 124.631 131.644 121.089 Q133.473 117.524 133.473 110.418 Q133.473 103.288 131.644 99.7466 Q129.839 96.1818 126.205 96.1818 M126.205 92.4781 Q132.015 92.4781 135.07 97.0846 Q138.149 101.668 138.149 110.418 Q138.149 119.145 135.07 123.751 Q132.015 128.334 126.205 128.334 Q120.394 128.334 117.316 123.751 Q114.26 119.145 114.26 110.418 Q114.26 101.668 117.316 97.0846 Q120.394 92.4781 126.205 92.4781 Z" fill="#000000" fill-rule="evenodd" fill-opacity="1" /><path clip-path="url(#clip720)" d="M146.366 121.783 L151.251 121.783 L151.251 127.663 L146.366 127.663 L146.366 121.783 Z" fill="#000000" fill-rule="evenodd" fill-opacity="1" /><path clip-path="url(#clip720)" d="M171.436 96.1818 Q167.825 96.1818 165.996 99.7466 Q164.19 103.288 164.19 110.418 Q164.19 117.524 165.996 121.089 Q167.825 124.631 171.436 124.631 Q175.07 124.631 176.876 121.089 Q178.704 117.524 178.704 110.418 Q178.704 103.288 176.876 99.7466 Q175.07 96.1818 171.436 96.1818 M171.436 92.4781 Q177.246 92.4781 180.301 97.0846 Q183.38 101.668 183.38 110.418 Q183.38 119.145 180.301 123.751 Q177.246 128.334 171.436 128.334 Q165.626 128.334 162.547 123.751 Q159.491 119.145 159.491 110.418 Q159.491 101.668 162.547 97.0846 Q165.626 92.4781 171.436 92.4781 Z" fill="#000000" fill-rule="evenodd" fill-opacity="1" /><path clip-path="url(#clip720)" d="M201.598 96.1818 Q197.987 96.1818 196.158 99.7466 Q194.352 103.288 194.352 110.418 Q194.352 117.524 196.158 121.089 Q197.987 124.631 201.598 124.631 Q205.232 124.631 207.037 121.089 Q208.866 117.524 208.866 110.418 Q208.866 103.288 207.037 99.7466 Q205.232 96.1818 201.598 96.1818 M201.598 92.4781 Q207.408 92.4781 210.463 97.0846 Q213.542 101.668 213.542 110.418 Q213.542 119.145 210.463 123.751 Q207.408 128.334 201.598 128.334 Q195.787 128.334 192.709 123.751 Q189.653 119.145 189.653 110.418 Q189.653 101.668 192.709 97.0846 Q195.787 92.4781 201.598 92.4781 Z" fill="#000000" fill-rule="evenodd" fill-opacity="1" /><path clip-path="url(#clip720)" d="M222.57 123.728 L230.209 123.728 L230.209 97.3623 L221.898 99.029 L221.898 94.7697 L230.162 93.1031 L234.838 93.1031 L234.838 123.728 L242.477 123.728 L242.477 127.663 L222.57 127.663 L222.57 123.728 Z" fill="#000000" fill-rule="evenodd" fill-opacity="1" /><path clip-path="url(#clip720)" d="M261.921 96.1818 Q258.31 96.1818 256.482 99.7466 Q254.676 103.288 254.676 110.418 Q254.676 117.524 256.482 121.089 Q258.31 124.631 261.921 124.631 Q265.556 124.631 267.361 121.089 Q269.19 117.524 269.19 110.418 Q269.19 103.288 267.361 99.7466 Q265.556 96.1818 261.921 96.1818 M261.921 92.4781 Q267.732 92.4781 270.787 97.0846 Q273.866 101.668 273.866 110.418 Q273.866 119.145 270.787 123.751 Q267.732 128.334 261.921 128.334 Q256.111 128.334 253.033 123.751 Q249.977 119.145 249.977 110.418 Q249.977 101.668 253.033 97.0846 Q256.111 92.4781 261.921 92.4781 Z" fill="#000000" fill-rule="evenodd" fill-opacity="1" /><path clip-path="url(#clip720)" d="M292.083 96.1818 Q288.472 96.1818 286.643 99.7466 Q284.838 103.288 284.838 110.418 Q284.838 117.524 286.643 121.089 Q288.472 124.631 292.083 124.631 Q295.718 124.631 297.523 121.089 Q299.352 117.524 299.352 110.418 Q299.352 103.288 297.523 99.7466 Q295.718 96.1818 292.083 96.1818 M292.083 92.4781 Q297.893 92.4781 300.949 97.0846 Q304.028 101.668 304.028 110.418 Q304.028 119.145 300.949 123.751 Q297.893 128.334 292.083 128.334 Q286.273 128.334 283.194 123.751 Q280.139 119.145 280.139 110.418 Q280.139 101.668 283.194 97.0846 Q286.273 92.4781 292.083 92.4781 Z" fill="#000000" fill-rule="evenodd" fill-opacity="1" /><path clip-path="url(#clip720)" d="M46.0847 841.917 Q46.0847 849.015 47.7079 851.752 Q49.3312 854.489 53.2461 854.489 Q56.3653 854.489 58.2114 852.452 Q60.0256 850.384 60.0256 846.851 Q60.0256 841.981 56.5881 839.053 Q53.1188 836.093 47.3897 836.093 L46.0847 836.093 L46.0847 841.917 M43.6657 830.236 L64.0042 830.236 L64.0042 836.093 L58.5933 836.093 Q61.8398 838.098 63.3994 841.09 Q64.9272 844.081 64.9272 848.41 Q64.9272 853.885 61.8716 857.131 Q58.7843 860.346 53.6281 860.346 Q47.6125 860.346 44.5569 856.335 Q41.5014 852.293 41.5014 844.304 L41.5014 836.093 L40.9285 836.093 Q36.8862 836.093 34.6901 838.766 Q32.4621 841.408 32.4621 846.214 Q32.4621 849.27 33.1941 852.166 Q33.9262 855.062 35.3903 857.736 L29.9795 857.736 Q28.7381 854.521 28.1334 851.498 Q27.4968 848.474 27.4968 845.609 Q27.4968 837.875 31.5072 834.055 Q35.5176 830.236 43.6657 830.236 Z" fill="#000000" fill-rule="evenodd" fill-opacity="1" /><path clip-path="url(#clip720)" d="M46.212 792.583 Q39.7508 792.583 36.0905 795.256 Q32.3984 797.898 32.3984 802.545 Q32.3984 807.192 36.0905 809.866 Q39.7508 812.508 46.212 812.508 Q52.6732 812.508 56.3653 809.866 Q60.0256 807.192 60.0256 802.545 Q60.0256 797.898 56.3653 795.256 Q52.6732 792.583 46.212 792.583 M33.7671 812.508 Q30.5842 810.662 29.0564 807.861 Q27.4968 805.028 27.4968 801.113 Q27.4968 794.62 32.6531 790.578 Q37.8093 786.504 46.212 786.504 Q54.6147 786.504 59.771 790.578 Q64.9272 794.62 64.9272 801.113 Q64.9272 805.028 63.3994 807.861 Q61.8398 810.662 58.657 812.508 L64.0042 812.508 L64.0042 818.396 L14.479 818.396 L14.479 812.508 L33.7671 812.508 Z" fill="#000000" fill-rule="evenodd" fill-opacity="1" /><path clip-path="url(#clip720)" d="M29.4065 754.07 L34.9447 754.07 Q33.6716 756.553 33.035 759.227 Q32.3984 761.9 32.3984 764.765 Q32.3984 769.125 33.7352 771.321 Q35.072 773.486 37.7456 773.486 Q39.7826 773.486 40.9603 771.926 Q42.1061 770.367 43.1565 765.656 L43.6021 763.651 Q44.9389 757.412 47.3897 754.802 Q49.8086 752.161 54.1691 752.161 Q59.1344 752.161 62.0308 756.107 Q64.9272 760.022 64.9272 766.897 Q64.9272 769.762 64.3543 772.881 Q63.8132 775.968 62.6992 779.406 L56.6518 779.406 Q58.3387 776.159 59.198 773.008 Q60.0256 769.857 60.0256 766.77 Q60.0256 762.632 58.6251 760.404 Q57.1929 758.176 54.6147 758.176 Q52.2276 758.176 50.9545 759.8 Q49.6813 761.391 48.5037 766.834 L48.0262 768.871 Q46.8804 774.313 44.5251 776.732 Q42.138 779.151 38.0002 779.151 Q32.9713 779.151 30.2341 775.586 Q27.4968 772.022 27.4968 765.465 Q27.4968 762.218 27.9743 759.354 Q28.4517 756.489 29.4065 754.07 Z" fill="#000000" fill-rule="evenodd" fill-opacity="1" /><path clip-path="url(#clip720)" d="M14.5426 728.767 Q21.8632 733.032 29.0246 735.101 Q36.186 737.169 43.5384 737.169 Q50.8908 737.169 58.1159 735.101 Q65.3091 733 72.5979 728.767 L72.5979 733.859 Q65.1182 738.634 57.8931 741.021 Q50.668 743.376 43.5384 743.376 Q36.4406 743.376 29.2474 741.021 Q22.0542 738.665 14.5426 733.859 L14.5426 728.767 Z" fill="#000000" fill-rule="evenodd" fill-opacity="1" /><path clip-path="url(#clip720)" d="M16.4842 717.149 L16.4842 687.103 L21.895 687.103 L21.895 710.72 L35.9632 710.72 L35.9632 688.09 L41.3741 688.09 L41.3741 710.72 L58.5933 710.72 L58.5933 686.53 L64.0042 686.53 L64.0042 717.149 L16.4842 717.149 Z" fill="#000000" fill-rule="evenodd" fill-opacity="1" /><path clip-path="url(#clip720)" d="M33.8307 655.561 Q33.2578 656.548 33.0032 657.725 Q32.7167 658.871 32.7167 660.272 Q32.7167 665.237 35.9632 667.911 Q39.1779 670.552 45.2253 670.552 L64.0042 670.552 L64.0042 676.441 L28.3562 676.441 L28.3562 670.552 L33.8944 670.552 Q30.6479 668.706 29.0883 665.746 Q27.4968 662.786 27.4968 658.553 Q27.4968 657.948 27.5923 657.216 Q27.656 656.484 27.8151 655.593 L33.8307 655.561 Z" fill="#000000" fill-rule="evenodd" fill-opacity="1" /><path clip-path="url(#clip720)" d="M33.8307 629.907 Q33.2578 630.894 33.0032 632.072 Q32.7167 633.217 32.7167 634.618 Q32.7167 639.583 35.9632 642.257 Q39.1779 644.899 45.2253 644.899 L64.0042 644.899 L64.0042 650.787 L28.3562 650.787 L28.3562 644.899 L33.8944 644.899 Q30.6479 643.052 29.0883 640.092 Q27.4968 637.132 27.4968 632.899 Q27.4968 632.294 27.5923 631.562 Q27.656 630.83 27.8151 629.939 L33.8307 629.907 Z" fill="#000000" fill-rule="evenodd" fill-opacity="1" /><path clip-path="url(#clip720)" d="M14.5426 624.687 L14.5426 619.595 Q22.0542 614.821 29.2474 612.465 Q36.4406 610.078 43.5384 610.078 Q50.668 610.078 57.8931 612.465 Q65.1182 614.821 72.5979 619.595 L72.5979 624.687 Q65.3091 620.454 58.1159 618.385 Q50.8908 616.285 43.5384 616.285 Q36.186 616.285 29.0246 618.385 Q21.8632 620.454 14.5426 624.687 Z" fill="#000000" fill-rule="evenodd" fill-opacity="1" /><polyline clip-path="url(#clip723)" style="stroke:#009af9; stroke-linecap:round; stroke-linejoin:round; stroke-width:8; stroke-opacity:1; fill:none" points="
  396.992,86.1857 445.679,791.919 494.366,1047.92 543.053,1168.05 591.74,1233.75 640.428,1273.52 689.115,1299.39 737.802,1317.16 786.489,1329.88 835.176,1339.3 
  883.864,1346.47 932.551,1352.05 981.238,1356.48 1029.93,1360.05 1078.61,1362.98 1127.3,1365.41 1175.99,1367.44 1224.67,1369.16 1273.36,1370.63 1322.05,1371.9 
  1370.74,1372.99 1419.42,1373.95 1468.11,1374.79 1516.8,1375.53 1565.48,1376.19 1614.17,1376.77 1662.86,1377.3 1711.55,1377.77 1760.23,1378.19 1808.92,1378.57 
  1857.61,1378.92 1906.29,1379.24 1954.98,1379.53 2003.67,1379.8 2052.36,1380.04 2101.04,1380.26 2149.73,1380.47 2198.42,1380.66 2247.1,1380.84 2295.79,1381 
  
  "/>
<polyline clip-path="url(#clip723)" style="stroke:#e26f46; stroke-linecap:round; stroke-linejoin:round; stroke-width:8; stroke-opacity:1; fill:none" points="
  396.992,1163.29 445.679,1336.41 494.366,1368.5 543.053,1377.66 591.74,1381.03 640.428,1382.5 689.115,1383.21 737.802,1383.6 786.489,1383.82 835.176,1383.95 
  883.864,1384.04 932.551,1384.09 981.238,1384.13 1029.93,1384.16 1078.61,1384.18 1127.3,1384.19 1175.99,1384.2 1224.67,1384.21 1273.36,1384.21 1322.05,1384.22 
  1370.74,1384.22 1419.42,1384.23 1468.11,1384.23 1516.8,1384.23 1565.48,1384.23 1614.17,1384.23 1662.86,1384.23 1711.55,1384.24 1760.23,1384.24 1808.92,1384.24 
  1857.61,1384.24 1906.29,1384.24 1954.98,1384.24 2003.67,1384.24 2052.36,1384.24 2101.04,1384.24 2149.73,1384.24 2198.42,1384.24 2247.1,1384.24 2295.79,1384.24 
  
  "/>
<polyline clip-path="url(#clip723)" style="stroke:#3da44d; stroke-linecap:round; stroke-linejoin:round; stroke-width:8; stroke-opacity:1; fill:none" points="
  396.992,949.21 445.679,1284.05 494.366,1350.48 543.053,1369.93 591.74,1377.2 640.428,1380.39 689.115,1381.96 737.802,1382.81 786.489,1383.3 835.176,1383.59 
  883.864,1383.78 932.551,1383.91 981.238,1383.99 1029.93,1384.05 1078.61,1384.1 1127.3,1384.13 1175.99,1384.15 1224.67,1384.17 1273.36,1384.18 1322.05,1384.19 
  1370.74,1384.2 1419.42,1384.21 1468.11,1384.21 1516.8,1384.22 1565.48,1384.22 1614.17,1384.22 1662.86,1384.23 1711.55,1384.23 1760.23,1384.23 1808.92,1384.23 
  1857.61,1384.23 1906.29,1384.23 1954.98,1384.23 2003.67,1384.24 2052.36,1384.24 2101.04,1384.24 2149.73,1384.24 2198.42,1384.24 2247.1,1384.24 2295.79,1384.24 
  
  "/>
<path clip-path="url(#clip720)" d="
M1814.45 319.726 L2285.66 319.726 L2285.66 93.1086 L1814.45 93.1086  Z
  " fill="#ffffff" fill-rule="evenodd" fill-opacity="1"/>
<polyline clip-path="url(#clip720)" style="stroke:#000000; stroke-linecap:round; stroke-linejoin:round; stroke-width:4; stroke-opacity:1; fill:none" points="
  1814.45,319.726 2285.66,319.726 2285.66,93.1086 1814.45,93.1086 1814.45,319.726 
  "/>
<polyline clip-path="url(#clip720)" style="stroke:#009af9; stroke-linecap:round; stroke-linejoin:round; stroke-width:4; stroke-opacity:1; fill:none" points="
  1836.81,149.763 1971,149.763 
  "/>
<path clip-path="url(#clip720)" d="M1993.36 139.949 L1994.27 129.174 L2023.57 129.174 L2024.49 139.949 L2023.29 139.949 Q2023.11 137.794 2022.92 136.553 Q2022.75 135.311 2022.33 134.14 Q2021.93 132.945 2021.42 132.383 Q2020.93 131.798 2019.97 131.353 Q2019.01 130.884 2017.77 130.767 Q2016.52 130.65 2014.65 130.65 Q2012.45 130.65 2011.91 130.744 Q2011.32 130.884 2011.18 131.306 Q2011.04 131.704 2011.04 132.571 L2011.04 157.844 Q2011.04 158.804 2011.23 159.202 Q2011.44 159.577 2012.54 159.881 Q2013.64 160.162 2016.08 160.162 L2018 160.162 L2018 161.638 Q2016.03 161.497 2008.89 161.497 Q2001.79 161.497 1999.82 161.638 L1999.82 160.162 L2001.74 160.162 Q2004.18 160.162 2005.28 159.881 Q2006.41 159.577 2006.59 159.202 Q2006.78 158.804 2006.78 157.844 L2006.78 132.571 Q2006.78 131.891 2006.73 131.61 Q2006.69 131.329 2006.48 131.095 Q2006.27 130.837 2005.77 130.744 Q2005.31 130.65 2003.2 130.65 Q2001.32 130.65 2000.06 130.767 Q1998.82 130.884 1997.86 131.353 Q1996.9 131.798 1996.38 132.383 Q1995.89 132.945 1995.47 134.14 Q1995.07 135.311 1994.91 136.553 Q1994.74 137.794 1994.55 139.949 L1993.36 139.949 Z" fill="#000000" fill-rule="evenodd" fill-opacity="1" /><path clip-path="url(#clip720)" d="M2031.53 161.638 L2031.53 160.162 Q2034.09 160.162 2034.67 159.858 Q2035.28 159.53 2035.28 157.984 L2035.28 145.125 Q2035.28 143.345 2034.65 142.9 Q2034.04 142.455 2031.53 142.455 L2031.53 140.956 L2038.21 140.441 L2038.21 145.711 Q2038.89 143.65 2040.32 142.057 Q2041.77 140.441 2044.11 140.441 Q2045.66 140.441 2046.64 141.307 Q2047.65 142.174 2047.65 143.368 Q2047.65 144.422 2046.99 144.961 Q2046.36 145.477 2045.59 145.477 Q2044.72 145.477 2044.11 144.938 Q2043.53 144.376 2043.53 143.415 Q2043.53 142.83 2043.78 142.385 Q2044.06 141.916 2044.28 141.752 Q2044.49 141.588 2044.63 141.542 Q2044.53 141.495 2044.11 141.495 Q2041.46 141.495 2039.94 144.141 Q2038.44 146.765 2038.44 150.512 L2038.44 157.89 Q2038.44 159.272 2039.01 159.717 Q2039.59 160.162 2042.1 160.162 L2043.1 160.162 L2043.1 161.638 Q2041.18 161.497 2037.01 161.497 Q2036.43 161.497 2035.52 161.521 Q2034.6 161.544 2033.41 161.591 Q2032.21 161.638 2031.53 161.638 Z" fill="#000000" fill-rule="evenodd" fill-opacity="1" /><path clip-path="url(#clip720)" d="M2051.52 157.071 Q2051.52 152.995 2056.32 150.84 Q2059.2 149.458 2065.15 149.107 L2065.15 147.35 Q2065.15 144.376 2063.58 142.806 Q2062.03 141.214 2060.07 141.214 Q2056.55 141.214 2054.87 143.415 Q2056.3 143.462 2056.81 144.188 Q2057.33 144.891 2057.33 145.617 Q2057.33 146.577 2056.72 147.21 Q2056.13 147.819 2055.12 147.819 Q2054.16 147.819 2053.53 147.233 Q2052.9 146.624 2052.9 145.57 Q2052.9 143.228 2055.01 141.682 Q2057.14 140.136 2060.16 140.136 Q2064.09 140.136 2066.72 142.783 Q2067.54 143.603 2067.94 144.657 Q2068.36 145.711 2068.4 146.413 Q2068.45 147.093 2068.45 148.451 L2068.45 158.031 Q2068.45 158.312 2068.55 158.78 Q2068.64 159.249 2069.06 159.858 Q2069.51 160.443 2070.23 160.443 Q2071.96 160.443 2071.94 157.375 L2071.94 154.682 L2073.16 154.682 L2073.16 157.375 Q2073.16 159.928 2071.8 160.935 Q2070.47 161.919 2069.22 161.919 Q2067.63 161.919 2066.62 160.748 Q2065.62 159.577 2065.48 157.984 Q2064.75 159.811 2063.09 161.006 Q2061.45 162.177 2059.2 162.177 Q2057.47 162.177 2055.83 161.732 Q2054.21 161.31 2052.85 160.116 Q2051.52 158.898 2051.52 157.071 M2055.22 157.024 Q2055.22 158.804 2056.48 159.952 Q2057.75 161.099 2059.53 161.099 Q2061.54 161.099 2063.35 159.553 Q2065.15 157.984 2065.15 154.916 L2065.15 150.114 Q2059.83 150.302 2057.51 152.433 Q2055.22 154.541 2055.22 157.024 Z" fill="#000000" fill-rule="evenodd" fill-opacity="1" /><path clip-path="url(#clip720)" d="M2071.43 169.461 Q2073.98 169.461 2074.57 169.133 Q2075.17 168.829 2075.17 167.306 L2075.17 144.844 Q2075.17 143.251 2074.57 142.853 Q2073.98 142.455 2071.43 142.455 L2071.43 140.956 L2078.34 140.441 L2078.34 143.603 Q2081.22 140.441 2085.06 140.441 Q2089.13 140.441 2092.11 143.603 Q2095.08 146.765 2095.08 151.285 Q2095.08 155.853 2091.92 159.015 Q2088.76 162.177 2084.38 162.177 Q2081.99 162.177 2080.37 160.959 Q2078.78 159.717 2078.48 158.804 L2078.48 159.249 L2078.48 167.306 Q2078.48 168.852 2079.09 169.157 Q2079.7 169.461 2082.22 169.461 L2082.22 170.937 Q2077.19 170.796 2076.81 170.796 Q2076.35 170.796 2071.43 170.937 L2071.43 169.461 M2078.48 156.181 Q2078.48 156.907 2078.57 157.164 Q2078.69 157.422 2079.16 158.195 Q2081.05 161.099 2084.15 161.099 Q2084.17 161.099 2084.19 161.099 Q2086.93 161.099 2089.02 158.312 Q2091.1 155.501 2091.1 151.285 Q2091.1 147.257 2089.2 144.446 Q2087.31 141.635 2084.68 141.635 Q2082.81 141.635 2081.17 142.642 Q2079.53 143.65 2078.48 145.477 L2078.48 156.181 Z" fill="#000000" fill-rule="evenodd" fill-opacity="1" /><path clip-path="url(#clip720)" d="M2101.61 160.959 Q2101.61 160.631 2102.06 160.092 L2115.43 142.01 L2109.98 142.01 Q2106.18 142.01 2104.94 143.415 Q2103.72 144.797 2103.49 148.685 L2102.29 148.685 L2102.83 140.956 L2118.17 140.956 Q2118.71 140.956 2118.92 140.979 Q2119.13 141.003 2119.28 141.167 Q2119.42 141.307 2119.42 141.588 Q2119.42 141.869 2118.99 142.408 L2105.64 160.443 L2111.31 160.443 Q2115.29 160.443 2116.63 158.78 Q2117.99 157.117 2118.31 152.667 L2119.51 152.667 L2118.69 161.638 L2102.88 161.638 Q2102.11 161.638 2101.85 161.544 Q2101.61 161.427 2101.61 160.959 Z" fill="#000000" fill-rule="evenodd" fill-opacity="1" /><path clip-path="url(#clip720)" d="M2128.74 159.062 Q2125.58 155.923 2125.58 151.379 Q2125.58 146.812 2128.67 143.486 Q2131.78 140.136 2136.23 140.136 Q2140.59 140.136 2143.71 143.462 Q2146.85 146.765 2146.85 151.379 Q2146.85 155.899 2143.68 159.038 Q2140.54 162.177 2136.19 162.177 Q2131.92 162.177 2128.74 159.062 M2129.56 150.981 Q2129.56 155.642 2130.78 157.75 Q2132.65 160.959 2136.23 160.959 Q2138.01 160.959 2139.49 159.998 Q2140.99 159.038 2141.81 157.422 Q2142.86 155.314 2142.86 150.981 Q2142.86 146.367 2141.6 144.329 Q2139.72 141.214 2136.19 141.214 Q2134.64 141.214 2133.12 142.033 Q2131.62 142.83 2130.71 144.422 Q2129.56 146.531 2129.56 150.981 Z" fill="#000000" fill-rule="evenodd" fill-opacity="1" /><path clip-path="url(#clip720)" d="M2148.37 161.638 L2148.37 160.162 Q2150.92 160.162 2151.51 159.858 Q2152.09 159.53 2152.09 157.984 L2152.09 145.078 Q2152.09 143.298 2151.48 142.877 Q2150.9 142.455 2148.55 142.455 L2148.55 140.956 L2155.25 140.441 L2155.25 158.031 Q2155.25 159.46 2155.77 159.811 Q2156.28 160.162 2158.63 160.162 L2158.63 161.638 Q2153.73 161.497 2153.64 161.497 Q2152.98 161.497 2148.37 161.638 M2150.38 132.079 Q2150.38 131.119 2151.11 130.346 Q2151.86 129.549 2152.91 129.549 Q2153.97 129.549 2154.71 130.275 Q2155.46 130.978 2155.46 132.102 Q2155.46 133.203 2154.71 133.929 Q2153.97 134.632 2152.91 134.632 Q2151.81 134.632 2151.08 133.859 Q2150.38 133.086 2150.38 132.079 Z" fill="#000000" fill-rule="evenodd" fill-opacity="1" /><path clip-path="url(#clip720)" d="M2162.86 151.332 Q2162.86 146.765 2166.05 143.603 Q2169.23 140.441 2173.54 140.441 Q2177.2 140.441 2179.59 143.415 L2179.59 133.039 Q2179.59 131.259 2178.95 130.814 Q2178.34 130.369 2175.86 130.369 L2175.86 128.87 L2182.77 128.355 L2182.77 157.469 Q2182.77 159.249 2183.38 159.717 Q2184.01 160.162 2186.5 160.162 L2186.5 161.638 L2179.45 162.177 L2179.45 158.991 Q2176.96 162.153 2173.03 162.177 Q2168.91 162.177 2165.88 159.015 Q2162.86 155.853 2162.86 151.332 M2166.84 151.379 Q2166.84 155.829 2168.23 158.031 Q2170.15 161.099 2173.26 161.099 Q2176.82 161.099 2178.93 157.75 Q2179.47 156.93 2179.45 155.97 L2179.45 146.132 Q2179.45 145.172 2178.93 144.376 Q2176.96 141.495 2173.75 141.495 Q2170.4 141.495 2168.32 144.563 Q2166.84 146.858 2166.84 151.379 Z" fill="#000000" fill-rule="evenodd" fill-opacity="1" /><path clip-path="url(#clip720)" d="M2189.21 157.071 Q2189.21 152.995 2194.01 150.84 Q2196.89 149.458 2202.84 149.107 L2202.84 147.35 Q2202.84 144.376 2201.27 142.806 Q2199.73 141.214 2197.76 141.214 Q2194.25 141.214 2192.56 143.415 Q2193.99 143.462 2194.5 144.188 Q2195.02 144.891 2195.02 145.617 Q2195.02 146.577 2194.41 147.21 Q2193.82 147.819 2192.82 147.819 Q2191.86 147.819 2191.22 147.233 Q2190.59 146.624 2190.59 145.57 Q2190.59 143.228 2192.7 141.682 Q2194.83 140.136 2197.85 140.136 Q2201.79 140.136 2204.41 142.783 Q2205.23 143.603 2205.63 144.657 Q2206.05 145.711 2206.1 146.413 Q2206.14 147.093 2206.14 148.451 L2206.14 158.031 Q2206.14 158.312 2206.24 158.78 Q2206.33 159.249 2206.75 159.858 Q2207.2 160.443 2207.92 160.443 Q2209.66 160.443 2209.63 157.375 L2209.63 154.682 L2210.85 154.682 L2210.85 157.375 Q2210.85 159.928 2209.49 160.935 Q2208.16 161.919 2206.92 161.919 Q2205.32 161.919 2204.32 160.748 Q2203.31 159.577 2203.17 157.984 Q2202.44 159.811 2200.78 161.006 Q2199.14 162.177 2196.89 162.177 Q2195.16 162.177 2193.52 161.732 Q2191.9 161.31 2190.54 160.116 Q2189.21 158.898 2189.21 157.071 M2192.91 157.024 Q2192.91 158.804 2194.18 159.952 Q2195.44 161.099 2197.22 161.099 Q2199.23 161.099 2201.04 159.553 Q2202.84 157.984 2202.84 154.916 L2202.84 150.114 Q2197.52 150.302 2195.21 152.433 Q2192.91 154.541 2192.91 157.024 Z" fill="#000000" fill-rule="evenodd" fill-opacity="1" /><path clip-path="url(#clip720)" d="M2212.77 161.638 L2212.77 160.162 Q2215.32 160.162 2215.91 159.858 Q2216.49 159.53 2216.49 157.984 L2216.49 133.039 Q2216.49 131.259 2215.86 130.814 Q2215.25 130.369 2212.77 130.369 L2212.77 128.87 L2219.65 128.355 L2219.65 157.984 Q2219.65 159.53 2220.26 159.858 Q2220.87 160.162 2223.4 160.162 L2223.4 161.638 Q2222.82 161.638 2221.6 161.591 Q2220.38 161.544 2219.49 161.521 Q2218.6 161.497 2218.08 161.497 Q2217.52 161.497 2212.77 161.638 Z" fill="#000000" fill-rule="evenodd" fill-opacity="1" /><polyline clip-path="url(#clip720)" style="stroke:#e26f46; stroke-linecap:round; stroke-linejoin:round; stroke-width:4; stroke-opacity:1; fill:none" points="
  1836.81,206.417 1971,206.417 
  "/>
<path clip-path="url(#clip720)" d="M1993.36 211.481 L1993.36 201.878 Q1993.36 201.339 1993.38 201.152 Q1993.41 200.964 1993.55 200.824 Q1993.69 200.683 1993.97 200.683 Q1994.51 200.683 1994.55 201.175 Q1994.69 205.93 1997.53 208.553 Q2000.32 211.153 2005.09 211.153 Q2007.98 211.153 2009.76 209.092 Q2011.54 207.007 2011.54 204.29 Q2011.54 201.69 2010.04 199.863 Q2009.4 199.044 2008.61 198.528 Q2007.83 197.99 2007.34 197.826 Q2006.87 197.662 2005.96 197.427 Q2000.01 195.999 1999.64 195.835 Q1996.8 194.874 1995.07 192.462 Q1993.36 190.026 1993.36 187.051 Q1993.36 183.21 1996.05 180.493 Q1998.77 177.753 2002.71 177.753 Q2004.67 177.753 2006.31 178.385 Q2007.98 178.994 2008.65 179.556 Q2009.33 180.118 2010.39 181.125 L2012.05 178.385 Q2012.43 177.753 2012.78 177.753 Q2013.15 177.753 2013.22 177.987 Q2013.32 178.198 2013.32 178.9 L2013.32 188.55 Q2013.32 189.089 2013.29 189.276 Q2013.27 189.464 2013.1 189.581 Q2012.96 189.698 2012.68 189.698 Q2012.21 189.698 2012.1 189.136 Q2010.76 179.111 2002.75 179.111 Q2000.01 179.111 1998.21 180.961 Q1996.43 182.788 1996.43 185.388 Q1996.43 187.496 1997.74 189.23 Q1999.05 190.939 2001.28 191.478 L2007.41 192.954 Q2010.48 193.68 2012.54 196.397 Q2014.6 199.114 2014.6 202.651 Q2014.6 206.726 2011.93 209.677 Q2009.29 212.629 2005.14 212.629 Q2002.17 212.629 1999.87 211.645 Q1997.58 210.661 1996.33 209.279 Q1995.37 210.872 1994.74 211.762 L1994.6 211.996 Q1994.23 212.629 1993.87 212.629 Q1993.5 212.629 1993.43 212.394 Q1993.36 212.16 1993.36 211.481 Z" fill="#000000" fill-rule="evenodd" fill-opacity="1" /><path clip-path="url(#clip720)" d="M2020.86 211.575 L2020.86 210.099 Q2023.41 210.099 2024 209.794 Q2024.58 209.467 2024.58 207.921 L2024.58 195.015 Q2024.58 193.235 2023.97 192.813 Q2023.39 192.392 2021.05 192.392 L2021.05 190.893 L2027.75 190.377 L2027.75 207.968 Q2027.75 209.396 2028.26 209.748 Q2028.78 210.099 2031.12 210.099 L2031.12 211.575 Q2026.22 211.434 2026.13 211.434 Q2025.47 211.434 2020.86 211.575 M2022.87 182.015 Q2022.87 181.055 2023.6 180.282 Q2024.35 179.486 2025.4 179.486 Q2026.46 179.486 2027.21 180.212 Q2027.96 180.915 2027.96 182.039 Q2027.96 183.14 2027.21 183.866 Q2026.46 184.568 2025.4 184.568 Q2024.3 184.568 2023.58 183.796 Q2022.87 183.023 2022.87 182.015 Z" fill="#000000" fill-rule="evenodd" fill-opacity="1" /><path clip-path="url(#clip720)" d="M2034.39 211.575 L2034.39 210.099 Q2036.95 210.099 2037.53 209.794 Q2038.12 209.467 2038.12 207.921 L2038.12 195.062 Q2038.12 193.282 2037.49 192.837 Q2036.88 192.392 2034.39 192.392 L2034.39 190.893 L2041.14 190.377 L2041.14 195.413 Q2043.39 190.377 2048.24 190.377 Q2053.86 190.377 2054.63 195.062 Q2055.45 193.235 2057.16 191.806 Q2058.89 190.377 2061.59 190.377 Q2065.19 190.377 2066.62 192.157 Q2067.68 193.352 2067.89 194.687 Q2068.1 196.022 2068.1 199.489 L2068.1 208.647 Q2068.15 209.654 2068.92 209.888 Q2069.69 210.099 2071.85 210.099 L2071.85 211.575 Q2066.95 211.434 2066.48 211.434 Q2066.11 211.434 2061.05 211.575 L2061.05 210.099 Q2063.6 210.099 2064.19 209.794 Q2064.8 209.467 2064.8 207.921 L2064.8 196.748 Q2064.8 194.312 2064.05 192.883 Q2063.3 191.431 2061.24 191.431 Q2058.75 191.431 2056.76 193.516 Q2054.77 195.6 2054.77 199.114 L2054.77 207.921 Q2054.77 209.467 2055.36 209.794 Q2055.97 210.099 2058.52 210.099 L2058.52 211.575 Q2053.62 211.434 2053.13 211.434 Q2052.76 211.434 2047.72 211.575 L2047.72 210.099 Q2050.27 210.099 2050.86 209.794 Q2051.47 209.467 2051.47 207.921 L2051.47 196.748 Q2051.47 194.312 2050.72 192.883 Q2049.97 191.431 2047.91 191.431 Q2045.43 191.431 2043.43 193.516 Q2041.44 195.6 2041.44 199.114 L2041.44 207.921 Q2041.44 209.467 2042.03 209.794 Q2042.64 210.099 2045.17 210.099 L2045.17 211.575 Q2040.27 211.434 2039.8 211.434 Q2039.43 211.434 2034.39 211.575 Z" fill="#000000" fill-rule="evenodd" fill-opacity="1" /><path clip-path="url(#clip720)" d="M2071.74 219.398 Q2074.29 219.398 2074.88 219.07 Q2075.49 218.765 2075.49 217.243 L2075.49 194.781 Q2075.49 193.188 2074.88 192.79 Q2074.29 192.392 2071.74 192.392 L2071.74 190.893 L2078.65 190.377 L2078.65 193.539 Q2081.53 190.377 2085.37 190.377 Q2089.45 190.377 2092.42 193.539 Q2095.4 196.701 2095.4 201.222 Q2095.4 205.789 2092.24 208.951 Q2089.07 212.113 2084.69 212.113 Q2082.31 212.113 2080.69 210.895 Q2079.1 209.654 2078.79 208.74 L2078.79 209.185 L2078.79 217.243 Q2078.79 218.789 2079.4 219.093 Q2080.01 219.398 2082.54 219.398 L2082.54 220.873 Q2077.5 220.733 2077.13 220.733 Q2076.66 220.733 2071.74 220.873 L2071.74 219.398 M2078.79 206.117 Q2078.79 206.843 2078.89 207.101 Q2079 207.359 2079.47 208.131 Q2081.37 211.036 2084.46 211.036 Q2084.48 211.036 2084.51 211.036 Q2087.25 211.036 2089.33 208.249 Q2091.42 205.438 2091.42 201.222 Q2091.42 197.193 2089.52 194.382 Q2087.62 191.572 2085 191.572 Q2083.12 191.572 2081.49 192.579 Q2079.85 193.586 2078.79 195.413 L2078.79 206.117 Z" fill="#000000" fill-rule="evenodd" fill-opacity="1" /><path clip-path="url(#clip720)" d="M2101.93 211.575 L2101.93 210.099 Q2104.48 210.099 2105.07 209.794 Q2105.65 209.467 2105.65 207.921 L2105.65 182.976 Q2105.65 181.196 2105.02 180.751 Q2104.41 180.306 2101.93 180.306 L2101.93 178.807 L2108.82 178.291 L2108.82 207.921 Q2108.82 209.467 2109.42 209.794 Q2110.03 210.099 2112.56 210.099 L2112.56 211.575 Q2111.98 211.575 2110.76 211.528 Q2109.54 211.481 2108.65 211.457 Q2107.76 211.434 2107.25 211.434 Q2106.68 211.434 2101.93 211.575 Z" fill="#000000" fill-rule="evenodd" fill-opacity="1" /><path clip-path="url(#clip720)" d="M2115.66 210.942 L2115.66 204.618 Q2115.66 204.079 2115.68 203.892 Q2115.7 203.705 2115.84 203.564 Q2115.98 203.424 2116.26 203.424 Q2116.59 203.424 2116.71 203.564 Q2116.85 203.705 2116.94 204.243 Q2117.67 207.546 2119.22 209.303 Q2120.79 211.036 2123.62 211.036 Q2126.31 211.036 2127.67 209.841 Q2129.03 208.647 2129.03 206.679 Q2129.03 203.166 2124.04 202.276 Q2121.16 201.69 2119.97 201.316 Q2118.77 200.917 2117.72 200.051 Q2115.66 198.364 2115.66 195.975 Q2115.66 193.586 2117.46 191.829 Q2119.29 190.073 2123.31 190.073 Q2126.01 190.073 2127.84 191.431 Q2128.37 191.01 2128.66 190.658 Q2129.29 190.073 2129.62 190.073 Q2129.99 190.073 2130.06 190.33 Q2130.13 190.565 2130.13 191.244 L2130.13 196.069 Q2130.13 196.608 2130.11 196.795 Q2130.08 196.982 2129.94 197.123 Q2129.8 197.24 2129.5 197.24 Q2128.96 197.24 2128.94 196.795 Q2128.56 190.986 2123.31 190.986 Q2120.48 190.986 2119.22 192.087 Q2117.95 193.165 2117.95 194.64 Q2117.95 195.46 2118.33 196.092 Q2118.72 196.701 2119.22 197.076 Q2119.73 197.427 2120.67 197.779 Q2121.61 198.107 2122.17 198.224 Q2122.75 198.341 2123.85 198.575 Q2127.69 199.301 2129.31 200.87 Q2131.33 202.885 2131.33 205.438 Q2131.33 208.272 2129.4 210.193 Q2127.48 212.113 2123.62 212.113 Q2120.5 212.113 2118.33 210.029 Q2118.04 210.31 2117.83 210.567 Q2117.62 210.802 2117.53 210.895 Q2117.46 210.989 2117.44 211.059 Q2117.41 211.106 2117.37 211.153 Q2116.41 212.113 2116.17 212.113 Q2115.8 212.113 2115.73 211.856 Q2115.66 211.621 2115.66 210.942 Z" fill="#000000" fill-rule="evenodd" fill-opacity="1" /><path clip-path="url(#clip720)" d="M2137.32 208.998 Q2134.16 205.859 2134.16 201.316 Q2134.16 196.748 2137.25 193.422 Q2140.36 190.073 2144.81 190.073 Q2149.17 190.073 2152.29 193.399 Q2155.43 196.701 2155.43 201.316 Q2155.43 205.836 2152.26 208.975 Q2149.12 212.113 2144.77 212.113 Q2140.51 212.113 2137.32 208.998 M2138.14 200.917 Q2138.14 205.578 2139.36 207.686 Q2141.23 210.895 2144.81 210.895 Q2146.59 210.895 2148.07 209.935 Q2149.57 208.975 2150.39 207.359 Q2151.44 205.25 2151.44 200.917 Q2151.44 196.303 2150.18 194.265 Q2148.3 191.15 2144.77 191.15 Q2143.22 191.15 2141.7 191.97 Q2140.2 192.766 2139.29 194.359 Q2138.14 196.467 2138.14 200.917 Z" fill="#000000" fill-rule="evenodd" fill-opacity="1" /><path clip-path="url(#clip720)" d="M2156.95 211.575 L2156.95 210.099 Q2159.5 210.099 2160.09 209.794 Q2160.67 209.467 2160.67 207.921 L2160.67 195.062 Q2160.67 193.282 2160.04 192.837 Q2159.43 192.392 2156.95 192.392 L2156.95 190.893 L2163.69 190.377 L2163.69 195.413 Q2165.94 190.377 2170.79 190.377 Q2174.4 190.377 2175.83 192.157 Q2176.88 193.352 2177.09 194.687 Q2177.33 196.022 2177.33 199.489 L2177.33 208.647 Q2177.37 209.654 2178.14 209.888 Q2178.92 210.099 2181.07 210.099 L2181.07 211.575 Q2176.18 211.434 2175.69 211.434 Q2175.31 211.434 2170.28 211.575 L2170.28 210.099 Q2172.83 210.099 2173.41 209.794 Q2174.02 209.467 2174.02 207.921 L2174.02 196.748 Q2174.02 194.312 2173.27 192.883 Q2172.52 191.431 2170.46 191.431 Q2167.98 191.431 2165.99 193.516 Q2164 195.6 2164 199.114 L2164 207.921 Q2164 209.467 2164.58 209.794 Q2165.19 210.099 2167.72 210.099 L2167.72 211.575 Q2162.83 211.434 2162.36 211.434 Q2161.98 211.434 2156.95 211.575 Z" fill="#000000" fill-rule="evenodd" fill-opacity="1" /><path clip-path="url(#clip720)" d="M2185.94 207.331 L2185.94 206.282 Q2189.98 206.282 2192.06 204.134 Q2192.63 204.134 2192.73 204.265 Q2192.83 204.396 2192.83 205.003 L2192.83 223.842 Q2192.83 224.842 2193.32 225.153 Q2193.81 225.465 2195.96 225.465 L2197.03 225.465 L2197.03 226.498 Q2195.85 226.399 2191.58 226.399 Q2187.32 226.399 2186.16 226.498 L2186.16 225.465 L2187.22 225.465 Q2189.34 225.465 2189.84 225.17 Q2190.35 224.858 2190.35 223.842 L2190.35 206.446 Q2188.6 207.331 2185.94 207.331 Z" fill="#000000" fill-rule="evenodd" fill-opacity="1" /><path clip-path="url(#clip720)" d="M2202.57 234.417 Q2202.57 234.253 2202.7 233.892 L2214.55 202.216 Q2214.55 202.183 2214.63 202.002 Q2214.72 201.822 2214.77 201.707 Q2214.82 201.576 2214.91 201.478 Q2215.03 201.379 2215.16 201.379 Q2215.49 201.379 2215.49 201.789 Q2215.49 201.822 2215.39 202.216 L2203.5 233.925 Q2203.31 234.499 2203.17 234.663 Q2203.06 234.827 2202.86 234.827 Q2202.57 234.827 2202.57 234.417 Z" fill="#000000" fill-rule="evenodd" fill-opacity="1" /><path clip-path="url(#clip720)" d="M2219.19 221.972 Q2219.19 220.972 2219.77 220.497 Q2220.34 220.021 2221.08 220.021 Q2221.85 220.021 2222.39 220.53 Q2222.95 221.022 2222.95 221.89 Q2222.95 222.825 2222.29 223.35 Q2221.65 223.874 2220.73 223.743 Q2221.54 225.088 2223.01 225.694 Q2224.5 226.301 2225.88 226.301 Q2227.32 226.301 2228.49 225.055 Q2229.67 223.809 2229.67 220.759 Q2229.67 218.169 2228.65 216.677 Q2227.65 215.185 2225.67 215.185 L2224.19 215.185 Q2223.69 215.185 2223.54 215.135 Q2223.39 215.086 2223.39 214.808 Q2223.39 214.48 2223.9 214.414 Q2224.41 214.414 2225.21 214.316 Q2227.16 214.25 2228.19 212.561 Q2229.13 210.987 2229.13 208.741 Q2229.13 206.692 2228.14 205.839 Q2227.18 204.97 2225.91 204.97 Q2224.73 204.97 2223.44 205.462 Q2222.14 205.954 2221.44 207.052 Q2223.52 207.052 2223.52 208.741 Q2223.52 209.479 2223.05 209.971 Q2222.59 210.446 2221.82 210.446 Q2221.08 210.446 2220.59 209.987 Q2220.09 209.512 2220.09 208.708 Q2220.09 206.79 2221.8 205.462 Q2223.52 204.134 2226.05 204.134 Q2228.54 204.134 2230.37 205.446 Q2232.23 206.757 2232.23 208.774 Q2232.23 210.758 2230.92 212.381 Q2229.6 214.004 2227.52 214.676 Q2230.08 215.185 2231.6 216.923 Q2233.13 218.644 2233.13 220.759 Q2233.13 223.382 2231.06 225.317 Q2229 227.235 2225.98 227.235 Q2223.19 227.235 2221.19 225.727 Q2219.19 224.219 2219.19 221.972 Z" fill="#000000" fill-rule="evenodd" fill-opacity="1" /><polyline clip-path="url(#clip720)" style="stroke:#3da44d; stroke-linecap:round; stroke-linejoin:round; stroke-width:4; stroke-opacity:1; fill:none" points="
  1836.81,263.072 1971,263.072 
  "/>
<path clip-path="url(#clip720)" d="M1993.36 268.135 L1993.36 258.532 Q1993.36 257.993 1993.38 257.806 Q1993.41 257.619 1993.55 257.478 Q1993.69 257.337 1993.97 257.337 Q1994.51 257.337 1994.55 257.829 Q1994.69 262.584 1997.53 265.207 Q2000.32 267.807 2005.09 267.807 Q2007.98 267.807 2009.76 265.746 Q2011.54 263.662 2011.54 260.945 Q2011.54 258.345 2010.04 256.518 Q2009.4 255.698 2008.61 255.183 Q2007.83 254.644 2007.34 254.48 Q2006.87 254.316 2005.96 254.082 Q2000.01 252.653 1999.64 252.489 Q1996.8 251.529 1995.07 249.116 Q1993.36 246.68 1993.36 243.706 Q1993.36 239.864 1996.05 237.147 Q1998.77 234.407 2002.71 234.407 Q2004.67 234.407 2006.31 235.039 Q2007.98 235.648 2008.65 236.21 Q2009.33 236.773 2010.39 237.78 L2012.05 235.039 Q2012.43 234.407 2012.78 234.407 Q2013.15 234.407 2013.22 234.641 Q2013.32 234.852 2013.32 235.555 L2013.32 245.205 Q2013.32 245.743 2013.29 245.931 Q2013.27 246.118 2013.1 246.235 Q2012.96 246.352 2012.68 246.352 Q2012.21 246.352 2012.1 245.79 Q2010.76 235.765 2002.75 235.765 Q2000.01 235.765 1998.21 237.616 Q1996.43 239.443 1996.43 242.043 Q1996.43 244.151 1997.74 245.884 Q1999.05 247.594 2001.28 248.132 L2007.41 249.608 Q2010.48 250.334 2012.54 253.051 Q2014.6 255.768 2014.6 259.305 Q2014.6 263.38 2011.93 266.332 Q2009.29 269.283 2005.14 269.283 Q2002.17 269.283 1999.87 268.299 Q1997.58 267.315 1996.33 265.934 Q1995.37 267.526 1994.74 268.416 L1994.6 268.651 Q1994.23 269.283 1993.87 269.283 Q1993.5 269.283 1993.43 269.049 Q1993.36 268.814 1993.36 268.135 Z" fill="#000000" fill-rule="evenodd" fill-opacity="1" /><path clip-path="url(#clip720)" d="M2020.86 268.229 L2020.86 266.753 Q2023.41 266.753 2024 266.449 Q2024.58 266.121 2024.58 264.575 L2024.58 251.669 Q2024.58 249.889 2023.97 249.468 Q2023.39 249.046 2021.05 249.046 L2021.05 247.547 L2027.75 247.032 L2027.75 264.622 Q2027.75 266.051 2028.26 266.402 Q2028.78 266.753 2031.12 266.753 L2031.12 268.229 Q2026.22 268.088 2026.13 268.088 Q2025.47 268.088 2020.86 268.229 M2022.87 238.67 Q2022.87 237.709 2023.6 236.937 Q2024.35 236.14 2025.4 236.14 Q2026.46 236.14 2027.21 236.866 Q2027.96 237.569 2027.96 238.693 Q2027.96 239.794 2027.21 240.52 Q2026.46 241.223 2025.4 241.223 Q2024.3 241.223 2023.58 240.45 Q2022.87 239.677 2022.87 238.67 Z" fill="#000000" fill-rule="evenodd" fill-opacity="1" /><path clip-path="url(#clip720)" d="M2034.39 268.229 L2034.39 266.753 Q2036.95 266.753 2037.53 266.449 Q2038.12 266.121 2038.12 264.575 L2038.12 251.716 Q2038.12 249.936 2037.49 249.491 Q2036.88 249.046 2034.39 249.046 L2034.39 247.547 L2041.14 247.032 L2041.14 252.067 Q2043.39 247.032 2048.24 247.032 Q2053.86 247.032 2054.63 251.716 Q2055.45 249.889 2057.16 248.46 Q2058.89 247.032 2061.59 247.032 Q2065.19 247.032 2066.62 248.812 Q2067.68 250.006 2067.89 251.341 Q2068.1 252.676 2068.1 256.143 L2068.1 265.301 Q2068.15 266.308 2068.92 266.543 Q2069.69 266.753 2071.85 266.753 L2071.85 268.229 Q2066.95 268.088 2066.48 268.088 Q2066.11 268.088 2061.05 268.229 L2061.05 266.753 Q2063.6 266.753 2064.19 266.449 Q2064.8 266.121 2064.8 264.575 L2064.8 253.403 Q2064.8 250.967 2064.05 249.538 Q2063.3 248.086 2061.24 248.086 Q2058.75 248.086 2056.76 250.17 Q2054.77 252.255 2054.77 255.768 L2054.77 264.575 Q2054.77 266.121 2055.36 266.449 Q2055.97 266.753 2058.52 266.753 L2058.52 268.229 Q2053.62 268.088 2053.13 268.088 Q2052.76 268.088 2047.72 268.229 L2047.72 266.753 Q2050.27 266.753 2050.86 266.449 Q2051.47 266.121 2051.47 264.575 L2051.47 253.403 Q2051.47 250.967 2050.72 249.538 Q2049.97 248.086 2047.91 248.086 Q2045.43 248.086 2043.43 250.17 Q2041.44 252.255 2041.44 255.768 L2041.44 264.575 Q2041.44 266.121 2042.03 266.449 Q2042.64 266.753 2045.17 266.753 L2045.17 268.229 Q2040.27 268.088 2039.8 268.088 Q2039.43 268.088 2034.39 268.229 Z" fill="#000000" fill-rule="evenodd" fill-opacity="1" /><path clip-path="url(#clip720)" d="M2071.74 276.052 Q2074.29 276.052 2074.88 275.724 Q2075.49 275.42 2075.49 273.897 L2075.49 251.435 Q2075.49 249.842 2074.88 249.444 Q2074.29 249.046 2071.74 249.046 L2071.74 247.547 L2078.65 247.032 L2078.65 250.194 Q2081.53 247.032 2085.37 247.032 Q2089.45 247.032 2092.42 250.194 Q2095.4 253.356 2095.4 257.876 Q2095.4 262.444 2092.24 265.606 Q2089.07 268.768 2084.69 268.768 Q2082.31 268.768 2080.69 267.55 Q2079.1 266.308 2078.79 265.395 L2078.79 265.84 L2078.79 273.897 Q2078.79 275.443 2079.4 275.748 Q2080.01 276.052 2082.54 276.052 L2082.54 277.528 Q2077.5 277.387 2077.13 277.387 Q2076.66 277.387 2071.74 277.528 L2071.74 276.052 M2078.79 262.772 Q2078.79 263.498 2078.89 263.755 Q2079 264.013 2079.47 264.786 Q2081.37 267.69 2084.46 267.69 Q2084.48 267.69 2084.51 267.69 Q2087.25 267.69 2089.33 264.903 Q2091.42 262.092 2091.42 257.876 Q2091.42 253.848 2089.52 251.037 Q2087.62 248.226 2085 248.226 Q2083.12 248.226 2081.49 249.233 Q2079.85 250.24 2078.79 252.067 L2078.79 262.772 Z" fill="#000000" fill-rule="evenodd" fill-opacity="1" /><path clip-path="url(#clip720)" d="M2101.93 268.229 L2101.93 266.753 Q2104.48 266.753 2105.07 266.449 Q2105.65 266.121 2105.65 264.575 L2105.65 239.63 Q2105.65 237.85 2105.02 237.405 Q2104.41 236.96 2101.93 236.96 L2101.93 235.461 L2108.82 234.946 L2108.82 264.575 Q2108.82 266.121 2109.42 266.449 Q2110.03 266.753 2112.56 266.753 L2112.56 268.229 Q2111.98 268.229 2110.76 268.182 Q2109.54 268.135 2108.65 268.112 Q2107.76 268.088 2107.25 268.088 Q2106.68 268.088 2101.93 268.229 Z" fill="#000000" fill-rule="evenodd" fill-opacity="1" /><path clip-path="url(#clip720)" d="M2115.66 267.597 L2115.66 261.272 Q2115.66 260.734 2115.68 260.546 Q2115.7 260.359 2115.84 260.218 Q2115.98 260.078 2116.26 260.078 Q2116.59 260.078 2116.71 260.218 Q2116.85 260.359 2116.94 260.898 Q2117.67 264.2 2119.22 265.957 Q2120.79 267.69 2123.62 267.69 Q2126.31 267.69 2127.67 266.496 Q2129.03 265.301 2129.03 263.334 Q2129.03 259.82 2124.04 258.93 Q2121.16 258.345 2119.97 257.97 Q2118.77 257.572 2117.72 256.705 Q2115.66 255.019 2115.66 252.63 Q2115.66 250.24 2117.46 248.484 Q2119.29 246.727 2123.31 246.727 Q2126.01 246.727 2127.84 248.086 Q2128.37 247.664 2128.66 247.313 Q2129.29 246.727 2129.62 246.727 Q2129.99 246.727 2130.06 246.985 Q2130.13 247.219 2130.13 247.898 L2130.13 252.723 Q2130.13 253.262 2130.11 253.449 Q2130.08 253.637 2129.94 253.777 Q2129.8 253.894 2129.5 253.894 Q2128.96 253.894 2128.94 253.449 Q2128.56 247.641 2123.31 247.641 Q2120.48 247.641 2119.22 248.741 Q2117.95 249.819 2117.95 251.295 Q2117.95 252.114 2118.33 252.747 Q2118.72 253.356 2119.22 253.73 Q2119.73 254.082 2120.67 254.433 Q2121.61 254.761 2122.17 254.878 Q2122.75 254.995 2123.85 255.229 Q2127.69 255.956 2129.31 257.525 Q2131.33 259.539 2131.33 262.092 Q2131.33 264.926 2129.4 266.847 Q2127.48 268.768 2123.62 268.768 Q2120.5 268.768 2118.33 266.683 Q2118.04 266.964 2117.83 267.222 Q2117.62 267.456 2117.53 267.55 Q2117.46 267.643 2117.44 267.714 Q2117.41 267.76 2117.37 267.807 Q2116.41 268.768 2116.17 268.768 Q2115.8 268.768 2115.73 268.51 Q2115.66 268.276 2115.66 267.597 Z" fill="#000000" fill-rule="evenodd" fill-opacity="1" /><path clip-path="url(#clip720)" d="M2137.32 265.652 Q2134.16 262.514 2134.16 257.97 Q2134.16 253.403 2137.25 250.077 Q2140.36 246.727 2144.81 246.727 Q2149.17 246.727 2152.29 250.053 Q2155.43 253.356 2155.43 257.97 Q2155.43 262.49 2152.26 265.629 Q2149.12 268.768 2144.77 268.768 Q2140.51 268.768 2137.32 265.652 M2138.14 257.572 Q2138.14 262.233 2139.36 264.341 Q2141.23 267.55 2144.81 267.55 Q2146.59 267.55 2148.07 266.589 Q2149.57 265.629 2150.39 264.013 Q2151.44 261.905 2151.44 257.572 Q2151.44 252.957 2150.18 250.92 Q2148.3 247.805 2144.77 247.805 Q2143.22 247.805 2141.7 248.624 Q2140.2 249.421 2139.29 251.013 Q2138.14 253.121 2138.14 257.572 Z" fill="#000000" fill-rule="evenodd" fill-opacity="1" /><path clip-path="url(#clip720)" d="M2156.95 268.229 L2156.95 266.753 Q2159.5 266.753 2160.09 266.449 Q2160.67 266.121 2160.67 264.575 L2160.67 251.716 Q2160.67 249.936 2160.04 249.491 Q2159.43 249.046 2156.95 249.046 L2156.95 247.547 L2163.69 247.032 L2163.69 252.067 Q2165.94 247.032 2170.79 247.032 Q2174.4 247.032 2175.83 248.812 Q2176.88 250.006 2177.09 251.341 Q2177.33 252.676 2177.33 256.143 L2177.33 265.301 Q2177.37 266.308 2178.14 266.543 Q2178.92 266.753 2181.07 266.753 L2181.07 268.229 Q2176.18 268.088 2175.69 268.088 Q2175.31 268.088 2170.28 268.229 L2170.28 266.753 Q2172.83 266.753 2173.41 266.449 Q2174.02 266.121 2174.02 264.575 L2174.02 253.403 Q2174.02 250.967 2173.27 249.538 Q2172.52 248.086 2170.46 248.086 Q2167.98 248.086 2165.99 250.17 Q2164 252.255 2164 255.768 L2164 264.575 Q2164 266.121 2164.58 266.449 Q2165.19 266.753 2167.72 266.753 L2167.72 268.229 Q2162.83 268.088 2162.36 268.088 Q2161.98 268.088 2156.95 268.229 Z" fill="#000000" fill-rule="evenodd" fill-opacity="1" /><path clip-path="url(#clip720)" d="M2185.94 278.627 Q2185.94 277.627 2186.52 277.151 Q2187.09 276.676 2187.83 276.676 Q2188.6 276.676 2189.14 277.184 Q2189.7 277.676 2189.7 278.545 Q2189.7 279.479 2189.04 280.004 Q2188.4 280.529 2187.48 280.398 Q2188.29 281.742 2189.76 282.349 Q2191.25 282.955 2192.63 282.955 Q2194.07 282.955 2195.24 281.709 Q2196.42 280.463 2196.42 277.414 Q2196.42 274.823 2195.4 273.331 Q2194.4 271.839 2192.42 271.839 L2190.94 271.839 Q2190.44 271.839 2190.29 271.79 Q2190.14 271.741 2190.14 271.462 Q2190.14 271.134 2190.65 271.068 Q2191.16 271.068 2191.96 270.97 Q2193.91 270.904 2194.94 269.216 Q2195.88 267.642 2195.88 265.396 Q2195.88 263.346 2194.89 262.493 Q2193.93 261.624 2192.66 261.624 Q2191.48 261.624 2190.19 262.116 Q2188.89 262.608 2188.19 263.707 Q2190.27 263.707 2190.27 265.396 Q2190.27 266.133 2189.8 266.625 Q2189.34 267.101 2188.57 267.101 Q2187.83 267.101 2187.34 266.642 Q2186.84 266.166 2186.84 265.363 Q2186.84 263.444 2188.55 262.116 Q2190.27 260.788 2192.8 260.788 Q2195.29 260.788 2197.12 262.1 Q2198.98 263.412 2198.98 265.428 Q2198.98 267.412 2197.67 269.035 Q2196.35 270.659 2194.27 271.331 Q2196.83 271.839 2198.35 273.577 Q2199.88 275.299 2199.88 277.414 Q2199.88 280.037 2197.81 281.972 Q2195.75 283.89 2192.73 283.89 Q2189.94 283.89 2187.94 282.381 Q2185.94 280.873 2185.94 278.627 Z" fill="#000000" fill-rule="evenodd" fill-opacity="1" /><path clip-path="url(#clip720)" d="M2202.57 291.071 Q2202.57 290.907 2202.7 290.547 L2214.55 258.87 Q2214.55 258.837 2214.63 258.657 Q2214.72 258.477 2214.77 258.362 Q2214.82 258.231 2214.91 258.132 Q2215.03 258.034 2215.16 258.034 Q2215.49 258.034 2215.49 258.444 Q2215.49 258.477 2215.39 258.87 L2203.5 290.579 Q2203.31 291.153 2203.17 291.317 Q2203.06 291.481 2202.86 291.481 Q2202.57 291.481 2202.57 291.071 Z" fill="#000000" fill-rule="evenodd" fill-opacity="1" /><path clip-path="url(#clip720)" d="M2219.19 278.086 Q2219.19 274.331 2224.03 271.905 Q2221.95 270.495 2221.57 270.085 Q2220.09 268.445 2220.09 266.396 Q2220.09 264.051 2221.87 262.428 Q2223.65 260.788 2226.18 260.788 Q2228.59 260.788 2230.41 262.182 Q2232.23 263.576 2232.23 265.789 Q2232.23 268.904 2228.16 271.003 Q2230.85 272.675 2231.49 273.38 Q2233.13 275.2 2233.13 277.512 Q2233.13 280.201 2231.06 282.054 Q2229 283.89 2226.14 283.89 Q2223.36 283.89 2221.27 282.267 Q2219.19 280.644 2219.19 278.086 M2220.87 278.086 Q2220.87 280.168 2222.42 281.562 Q2224 282.955 2226.18 282.955 Q2228.29 282.955 2229.87 281.742 Q2231.46 280.529 2231.46 278.725 Q2231.46 278.02 2231.21 277.414 Q2230.98 276.807 2230.51 276.331 Q2230.05 275.84 2229.75 275.626 Q2229.47 275.397 2228.93 275.02 L2224.8 272.413 Q2220.87 274.593 2220.87 278.086 M2221.57 265.084 Q2221.57 266.691 2223.26 267.806 L2227.42 270.495 Q2230.75 268.543 2230.75 265.789 Q2230.75 264.002 2229.39 262.821 Q2228.03 261.624 2226.14 261.624 Q2224.29 261.624 2222.93 262.608 Q2221.57 263.576 2221.57 265.084 Z" fill="#000000" fill-rule="evenodd" fill-opacity="1" /></svg>
